<svg width="2772" height="2790" viewBox="0 0 2772 2790" fill="none" xmlns="http://www.w3.org/2000/svg">
<g clip-path="url(#clip0_418_2763)">
<path d="M2648.03 1884.83C2379.87 2516.23 1665.57 2869.94 1046.12 2774.53C945.32 2759 668.99 2712.76 424.33 2494.57C-46.6401 2074.55 -147.37 1242.86 232.56 656.74C509.08 230.16 1004.77 -11.6602 1475.77 0.42976C1577.22 3.03976 1966.04 19.0898 2307.74 300.85C2357.93 342.23 2468.63 440.58 2568.39 596.59C2802.66 962.94 2822.79 1473.34 2648.03 1884.83Z" fill="url(#paint0_linear_418_2763)"/>
<path d="M2741.9 1057.7C2741.57 1040 2727.12 1025.1 2709.42 1025.1H2040.25C2022.31 1025.1 2006.72 1041.09 2006.72 1059.03V2662.6C2006.72 2671.23 2010.68 2679.51 2016.79 2685.6C2022.9 2691.69 2031.45 2695.11 2040.08 2695.08L2739.48 2693.17C2748.19 2693.15 2756.58 2689.63 2762.67 2683.41C2768.76 2677.19 2772.13 2668.42 2771.97 2659.72L2741.9 1057.7Z" fill="#91B3FA"/>
<g opacity="0.5">
<path d="M2231.73 1088.87H2058.83C2053.69 1088.87 2054.94 1097.85 2054.94 1103.35V1134.65C2054.94 1140.15 2053.69 1149.31 2058.83 1149.31H2231.73C2236.87 1149.31 2239.6 1140.15 2239.6 1134.65V1103.35C2239.6 1097.85 2236.87 1088.87 2231.73 1088.87Z" fill="white"/>
<path d="M2463.16 1088.87H2290.26C2285.12 1088.87 2283.26 1097.85 2283.26 1103.35V1134.65C2283.26 1140.15 2285.12 1149.31 2290.26 1149.31H2463.16C2468.3 1149.31 2467.92 1140.15 2467.92 1134.65V1103.35C2467.92 1097.85 2468.3 1088.87 2463.16 1088.87Z" fill="white"/>
<path d="M2694.58 1088.87H2521.68C2516.54 1088.87 2508.22 1097.85 2508.22 1103.35V1134.65C2508.22 1140.15 2516.54 1149.31 2521.68 1149.31H2694.58C2699.72 1149.31 2706.31 1140.15 2706.31 1134.65V1103.35C2706.31 1097.85 2699.72 1088.87 2694.58 1088.87Z" fill="white"/>
<path d="M2231.73 1223.17H2058.83C2053.69 1223.17 2054.94 1221.6 2054.94 1227.1V1258.4C2054.94 1263.9 2053.69 1273.53 2058.83 1273.53H2231.73C2236.87 1273.53 2239.6 1263.9 2239.6 1258.4V1227.1C2239.6 1221.6 2236.87 1223.17 2231.73 1223.17Z" fill="white"/>
<path d="M2463.16 1223.17H2290.26C2285.12 1223.17 2283.26 1221.6 2283.26 1227.1V1258.4C2283.26 1263.9 2285.12 1273.53 2290.26 1273.53H2463.16C2468.3 1273.53 2467.92 1263.9 2467.92 1258.4V1227.1C2467.92 1221.6 2468.3 1223.17 2463.16 1223.17Z" fill="white"/>
<path d="M2694.58 1223.17H2521.68C2516.54 1223.17 2508.22 1221.6 2508.22 1227.1V1258.4C2508.22 1263.9 2516.54 1273.53 2521.68 1273.53H2694.58C2699.72 1273.53 2706.31 1263.9 2706.31 1258.4V1227.1C2706.31 1221.6 2699.72 1223.17 2694.58 1223.17Z" fill="white"/>
<path d="M2231.73 1340.68H2058.83C2053.69 1340.68 2054.94 1345.36 2054.94 1350.86V1382.16C2054.94 1387.66 2053.69 1394.41 2058.83 1394.41H2231.73C2236.87 1394.41 2239.6 1387.66 2239.6 1382.16V1350.86C2239.6 1345.36 2236.87 1340.68 2231.73 1340.68Z" fill="white"/>
<path d="M2463.16 1340.68H2290.26C2285.12 1340.68 2283.26 1345.36 2283.26 1350.86V1382.16C2283.26 1387.66 2285.12 1394.41 2290.26 1394.41H2463.16C2468.3 1394.41 2467.92 1387.66 2467.92 1382.16V1350.86C2467.92 1345.36 2468.3 1340.68 2463.16 1340.68Z" fill="white"/>
<path d="M2694.58 1340.68H2521.68C2516.54 1340.68 2508.22 1345.36 2508.22 1350.86V1382.16C2508.22 1387.66 2516.54 1394.41 2521.68 1394.41H2694.58C2699.72 1394.41 2706.31 1387.66 2706.31 1382.16V1350.86C2706.31 1345.36 2699.72 1340.68 2694.58 1340.68Z" fill="white"/>
<path d="M2231.73 1468.27H2058.83C2053.69 1468.27 2054.94 1469.12 2054.94 1474.62V1505.92C2054.94 1511.42 2053.69 1518.63 2058.83 1518.63H2231.73C2236.87 1518.63 2239.6 1511.41 2239.6 1505.92V1474.62C2239.6 1469.12 2236.87 1468.27 2231.73 1468.27Z" fill="white"/>
<path d="M2463.16 1468.27H2290.26C2285.12 1468.27 2283.26 1469.12 2283.26 1474.62V1505.92C2283.26 1511.42 2285.12 1518.63 2290.26 1518.63H2463.16C2468.3 1518.63 2467.92 1511.41 2467.92 1505.92V1474.62C2467.92 1469.12 2468.3 1468.27 2463.16 1468.27Z" fill="white"/>
<path d="M2694.58 1468.27H2521.68C2516.54 1468.27 2508.22 1469.12 2508.22 1474.62V1505.92C2508.22 1511.42 2516.54 1518.63 2521.68 1518.63H2694.58C2699.72 1518.63 2706.31 1511.41 2706.31 1505.92V1474.62C2706.31 1469.12 2699.72 1468.27 2694.58 1468.27Z" fill="white"/>
<path d="M2231.73 1585.79H2058.83C2053.69 1585.79 2054.94 1592.89 2054.94 1598.39V1629.69C2054.94 1635.19 2053.69 1639.52 2058.83 1639.52H2231.73C2236.87 1639.52 2239.6 1635.19 2239.6 1629.69V1598.39C2239.6 1592.89 2236.87 1585.79 2231.73 1585.79Z" fill="white"/>
<path d="M2463.16 1585.79H2290.26C2285.12 1585.79 2283.26 1592.89 2283.26 1598.39V1629.69C2283.26 1635.19 2285.12 1639.52 2290.26 1639.52H2463.16C2468.3 1639.52 2467.92 1635.19 2467.92 1629.69V1598.39C2467.92 1592.89 2468.3 1585.79 2463.16 1585.79Z" fill="white"/>
<path d="M2694.58 1585.79H2521.68C2516.54 1585.79 2508.22 1592.89 2508.22 1598.39V1629.69C2508.22 1635.19 2516.54 1639.52 2521.68 1639.52H2694.58C2699.72 1639.52 2706.31 1635.19 2706.31 1629.69V1598.39C2706.31 1592.89 2699.72 1585.79 2694.58 1585.79Z" fill="white"/>
<path d="M2231.73 1713.37H2058.83C2053.69 1713.37 2054.94 1716.64 2054.94 1722.14V1753.44C2054.94 1758.94 2053.69 1763.74 2058.83 1763.74H2231.73C2236.87 1763.74 2239.6 1758.94 2239.6 1753.44V1722.14C2239.6 1716.64 2236.87 1713.37 2231.73 1713.37Z" fill="white"/>
<path d="M2463.16 1713.37H2290.26C2285.12 1713.37 2283.26 1716.64 2283.26 1722.14V1753.44C2283.26 1758.94 2285.12 1763.74 2290.26 1763.74H2463.16C2468.3 1763.74 2467.92 1758.94 2467.92 1753.44V1722.14C2467.92 1716.64 2468.3 1713.37 2463.16 1713.37Z" fill="white"/>
<path d="M2694.58 1713.37H2521.68C2516.54 1713.37 2508.22 1716.64 2508.22 1722.14V1753.44C2508.22 1758.94 2516.54 1763.74 2521.68 1763.74H2694.58C2699.72 1763.74 2706.31 1758.94 2706.31 1753.44V1722.14C2706.31 1716.64 2699.72 1713.37 2694.58 1713.37Z" fill="white"/>
<path d="M2231.73 1830.89H2058.83C2053.69 1830.89 2054.94 1840.41 2054.94 1845.91V1877.21C2054.94 1882.71 2053.69 1891.33 2058.83 1891.33H2231.73C2236.87 1891.33 2239.6 1882.71 2239.6 1877.21V1845.91C2239.6 1840.41 2236.87 1830.89 2231.73 1830.89Z" fill="white"/>
<path d="M2463.16 1830.89H2290.26C2285.12 1830.89 2283.26 1840.41 2283.26 1845.91V1877.21C2283.26 1882.71 2285.12 1891.33 2290.26 1891.33H2463.16C2468.3 1891.33 2467.92 1882.71 2467.92 1877.21V1845.91C2467.92 1840.41 2468.3 1830.89 2463.16 1830.89Z" fill="white"/>
<path d="M2694.58 1830.89H2521.68C2516.54 1830.89 2508.22 1840.41 2508.22 1845.91V1877.21C2508.22 1882.71 2516.54 1891.33 2521.68 1891.33H2694.58C2699.72 1891.33 2706.31 1882.71 2706.31 1877.21V1845.91C2706.31 1840.41 2699.72 1830.89 2694.58 1830.89Z" fill="white"/>
<path d="M2231.73 1958.48H2058.83C2053.69 1958.48 2054.94 1964.17 2054.94 1969.67V2000.97C2054.94 2006.47 2053.69 2018.92 2058.83 2018.92H2231.73C2236.87 2018.92 2239.6 2006.47 2239.6 2000.97V1969.67C2239.6 1964.17 2236.87 1958.48 2231.73 1958.48Z" fill="white"/>
<path d="M2463.16 1958.48H2290.26C2285.12 1958.48 2283.26 1964.17 2283.26 1969.67V2000.97C2283.26 2006.47 2285.12 2018.92 2290.26 2018.92H2463.16C2468.3 2018.92 2467.92 2006.47 2467.92 2000.97V1969.67C2467.92 1964.17 2468.3 1958.48 2463.16 1958.48Z" fill="white"/>
<path d="M2694.58 1958.48H2521.68C2516.54 1958.48 2508.22 1964.17 2508.22 1969.67V2000.97C2508.22 2006.47 2516.54 2018.92 2521.68 2018.92H2694.58C2699.72 2018.92 2706.31 2006.47 2706.31 2000.97V1969.67C2706.31 1964.17 2699.72 1958.48 2694.58 1958.48Z" fill="white"/>
<path d="M2231.73 2079.35H2058.83C2053.69 2079.35 2054.94 2087.93 2054.94 2093.43V2124.73C2054.94 2130.23 2053.69 2136.44 2058.83 2136.44H2231.73C2236.87 2136.44 2239.6 2130.23 2239.6 2124.73V2093.43C2239.6 2087.93 2236.87 2079.35 2231.73 2079.35Z" fill="white"/>
<path d="M2463.16 2079.35H2290.26C2285.12 2079.35 2283.26 2087.93 2283.26 2093.43V2124.73C2283.26 2130.23 2285.12 2136.44 2290.26 2136.44H2463.16C2468.3 2136.44 2467.92 2130.23 2467.92 2124.73V2093.43C2467.92 2087.93 2468.3 2079.35 2463.16 2079.35Z" fill="white"/>
<path d="M2694.58 2079.35H2521.68C2516.54 2079.35 2508.22 2087.93 2508.22 2093.43V2124.73C2508.22 2130.23 2516.54 2136.44 2521.68 2136.44H2694.58C2699.72 2136.44 2706.31 2130.23 2706.31 2124.73V2093.43C2706.31 2087.93 2699.72 2079.35 2694.58 2079.35Z" fill="white"/>
<path d="M2231.73 2210.29H2058.83C2053.69 2210.29 2054.94 2211.68 2054.94 2217.18V2248.48C2054.94 2253.98 2053.69 2264.01 2058.83 2264.01H2231.73C2236.87 2264.01 2239.6 2253.98 2239.6 2248.48V2217.18C2239.6 2211.68 2236.87 2210.29 2231.73 2210.29Z" fill="white"/>
<path d="M2463.16 2210.29H2290.26C2285.12 2210.29 2283.26 2211.68 2283.26 2217.18V2248.48C2283.26 2253.98 2285.12 2264.01 2290.26 2264.01H2463.16C2468.3 2264.01 2467.92 2253.98 2467.92 2248.48V2217.18C2467.92 2211.68 2468.3 2210.29 2463.16 2210.29Z" fill="white"/>
<path d="M2694.58 2210.29H2521.68C2516.54 2210.29 2508.22 2211.68 2508.22 2217.18V2248.48C2508.22 2253.98 2516.54 2264.01 2521.68 2264.01H2694.58C2699.72 2264.01 2706.31 2253.98 2706.31 2248.48V2217.18C2706.31 2211.68 2699.72 2210.29 2694.58 2210.29Z" fill="white"/>
<path d="M2231.73 2337.88H2058.83C2053.69 2337.88 2054.94 2335.44 2054.94 2340.94V2372.24C2054.94 2377.74 2053.69 2381.53 2058.83 2381.53H2231.73C2236.87 2381.53 2239.6 2377.74 2239.6 2372.24V2340.94C2239.6 2335.44 2236.87 2337.88 2231.73 2337.88Z" fill="white"/>
<path d="M2463.16 2337.88H2290.26C2285.12 2337.88 2283.26 2335.44 2283.26 2340.94V2372.24C2283.26 2377.74 2285.12 2381.53 2290.26 2381.53H2463.16C2468.3 2381.53 2467.92 2377.74 2467.92 2372.24V2340.94C2467.92 2335.44 2468.3 2337.88 2463.16 2337.88Z" fill="white"/>
<path d="M2694.58 2337.88H2521.68C2516.54 2337.88 2508.22 2335.44 2508.22 2340.94V2372.24C2508.22 2377.74 2516.54 2381.53 2521.68 2381.53H2694.58C2699.72 2381.53 2706.31 2377.74 2706.31 2372.24V2340.94C2706.31 2335.44 2699.72 2337.88 2694.58 2337.88Z" fill="white"/>
<path d="M2231.73 2455.39H2058.83C2053.69 2455.39 2054.94 2459.2 2054.94 2464.7V2496C2054.94 2501.5 2053.69 2509.11 2058.83 2509.11H2231.73C2236.87 2509.11 2239.6 2501.5 2239.6 2496V2464.7C2239.6 2459.2 2236.87 2455.39 2231.73 2455.39Z" fill="white"/>
<path d="M2463.16 2455.39H2290.26C2285.12 2455.39 2283.26 2459.2 2283.26 2464.7V2496C2283.26 2501.5 2285.12 2509.11 2290.26 2509.11H2463.16C2468.3 2509.11 2467.92 2501.5 2467.92 2496V2464.7C2467.92 2459.2 2468.3 2455.39 2463.16 2455.39Z" fill="white"/>
<path d="M2694.58 2455.39H2521.68C2516.54 2455.39 2508.22 2459.2 2508.22 2464.7V2496C2508.22 2501.5 2516.54 2509.11 2521.68 2509.11H2694.58C2699.72 2509.11 2706.31 2501.5 2706.31 2496V2464.7C2706.31 2459.2 2699.72 2455.39 2694.58 2455.39Z" fill="white"/>
</g>
<path d="M667.16 1841.81C545.21 1871.78 382.26 1744.51 325.25 1600.2C266.59 1451.69 359.32 1384.35 349.45 1175.15C338.24 937.5 213.03 907.07 117.27 590.26C95.6604 518.77 -29.3696 105.12 99.5504 20.9399C218.75 -56.9001 571.55 136.16 643.41 399.82C694.65 587.83 565.34 673.35 625.71 892.29C678.68 1084.4 795.76 1082.1 848.74 1267.36C913.24 1492.9 827.27 1802.46 667.16 1841.8V1841.81Z" fill="#BDD0FB"/>
<path d="M660.74 1899.78C682.72 1642.24 600.79 1249.98 528.18 966.27C449.57 659.1 364.67 409.45 363.82 406.96L353.71 410.41C354.56 412.89 439.34 662.21 517.85 968.99C590.25 1251.88 671.96 1642.84 650.1 1898.88L660.74 1899.79V1899.78Z" fill="#7D97F4"/>
<path d="M666.95 2540.5C833.03 2462.42 900.59 2173.74 812.02 2075.4C752.17 2008.95 659.86 2072.5 576.16 2002.73C469.29 1913.66 556.96 1757.71 478.67 1547.61C412.04 1368.81 241.78 1195.25 136.92 1225.14C27.1498 1256.44 -40.7302 1519.17 45.2398 1682.47C101.15 1788.67 193.02 1797.53 209.05 1894.83C227.65 2007.73 113.58 2054.21 108.53 2162.72C99.4598 2357.64 447.24 2643.78 666.95 2540.49V2540.5Z" fill="#91B3FA"/>
<path d="M576.15 2611.42C577.12 2611.46 578.11 2611.29 579.06 2610.87C582.42 2609.41 583.95 2605.5 582.49 2602.15C385.07 2149.1 342.92 1631.16 342.52 1625.98C342.24 1622.33 339.04 1619.6 335.4 1619.89C331.75 1620.17 329.02 1623.36 329.31 1627.01C329.71 1632.21 372.04 2152.37 570.34 2607.44C571.39 2609.85 573.69 2611.32 576.15 2611.42Z" fill="#7D97F4"/>
<path d="M168.23 1752.54C168.91 1752.57 169.61 1752.38 170.2 1751.95C171.62 1750.93 171.95 1748.95 170.93 1747.53C106.45 1657.4 36.3996 1523.09 68.8296 1395.06C88.1396 1318.81 135.29 1280.56 135.77 1280.18C137.14 1279.09 137.37 1277.1 136.28 1275.73C135.19 1274.36 133.19 1274.13 131.83 1275.23C129.83 1276.82 82.5296 1315.21 62.6996 1393.51C44.4696 1465.47 47.5596 1585.95 165.79 1751.22C166.38 1752.05 167.3 1752.5 168.24 1752.54H168.23Z" fill="#F0F0F0"/>
<path d="M683.2 2502.3C684.21 2502.34 685.22 2501.9 685.87 2501.03C796.69 2352.68 837.17 2236.21 806.19 2154.85C778.65 2082.52 702.31 2066.14 701.55 2065.98C699.83 2065.64 698.16 2066.74 697.81 2068.45C697.46 2070.16 698.56 2071.84 700.28 2072.19C701.01 2072.34 774.05 2088.1 800.3 2157.18C830.4 2236.38 790.19 2350.79 680.79 2497.23C679.74 2498.63 680.03 2500.62 681.43 2501.67C681.96 2502.07 682.58 2502.27 683.19 2502.3H683.2Z" fill="#F0F0F0"/>
<path d="M822.8 161.04L2173.43 200.22C2302.52 203.96 2405.69 280.94 2409.63 376.46L2495.79 2465.86C2499.85 2564.4 2397.06 2647.41 2263.98 2653.03L759.97 2716.6C616.64 2722.66 496.79 2637.01 500.05 2530.85L567.27 338.7C570.39 237.08 685.48 157.06 822.8 161.04Z" fill="url(#paint1_linear_418_2763)"/>
<path d="M877.33 252.72L2131.06 289.09C2250.89 292.57 2346.66 364.02 2350.31 452.68L2430.29 2392.18C2434.06 2483.65 2338.64 2560.7 2215.11 2565.92L819 2624.93C685.95 2630.55 574.7 2551.05 577.73 2452.51L640.13 417.63C643.02 323.3 749.86 249.02 877.33 252.72Z" fill="url(#paint2_linear_418_2763)"/>
<path opacity="0.2" d="M917.211 314.51L2078.96 348.21C2190 351.43 2278.74 417.65 2282.13 499.8L2356.24 2297C2359.74 2381.76 2271.31 2453.16 2156.85 2458L863.171 2512.68C739.891 2517.89 636.801 2444.22 639.601 2352.91L697.421 467.33C700.101 379.92 799.101 311.09 917.211 314.52V314.51Z" fill="white"/>
<path d="M2561.6 91.8599H821.59C801.15 91.8599 784.58 108.43 784.58 128.87V2672.74C784.58 2693.18 801.15 2709.75 821.59 2709.75H2561.6C2582.04 2709.75 2598.61 2693.18 2598.61 2672.74V128.87C2598.61 108.43 2582.04 91.8599 2561.6 91.8599Z" fill="url(#paint3_linear_418_2763)"/>
<path d="M2497.19 161.02H887.781C867.34 161.02 850.771 177.59 850.771 198.03V2611.63C850.771 2632.07 867.34 2648.64 887.781 2648.64H2497.19C2517.63 2648.64 2534.2 2632.07 2534.2 2611.63V198.03C2534.2 177.59 2517.63 161.02 2497.19 161.02Z" fill="#91B3FA"/>
<path d="M813.2 856.93C810.42 856.93 808.16 854.67 808.16 851.89V265.94C808.16 190.14 869.83 128.47 945.64 128.47H1389.26C1392.04 128.47 1394.3 130.73 1394.3 133.51C1394.3 136.29 1392.04 138.55 1389.26 138.55H945.64C875.39 138.55 818.24 195.7 818.24 265.95V851.89C818.24 854.67 815.98 856.93 813.2 856.93Z" fill="#BDD0FB"/>
<path d="M813.2 1352.96C810.42 1352.96 808.16 1350.7 808.16 1347.92V943.32C808.16 940.54 810.42 938.28 813.2 938.28C815.98 938.28 818.24 940.54 818.24 943.32V1347.92C818.24 1350.7 815.98 1352.96 813.2 1352.96Z" fill="#BDD0FB"/>
<g opacity="0.7">
<path d="M1747.57 272.21H962.751C956.847 272.21 952.061 276.996 952.061 282.9V447.16C952.061 453.064 956.847 457.85 962.751 457.85H1747.57C1753.47 457.85 1758.26 453.064 1758.26 447.16V282.9C1758.26 276.996 1753.47 272.21 1747.57 272.21Z" fill="white"/>
<path d="M1005.65 570.54H1316.12C1319.82 570.54 1322.82 573.54 1322.82 577.24V845.18C1322.82 848.88 1319.82 851.88 1316.12 851.88H1005.65C1001.95 851.88 998.95 848.88 998.95 845.18V577.24C998.95 573.54 1001.95 570.54 1005.65 570.54Z" fill="white"/>
<path d="M2392.93 570.54H1413.23C1411.62 570.54 1410.31 571.847 1410.31 573.46V654.94C1410.31 656.553 1411.62 657.86 1413.23 657.86H2392.93C2394.54 657.86 2395.85 656.553 2395.85 654.94V573.46C2395.85 571.847 2394.54 570.54 2392.93 570.54Z" fill="white"/>
<path d="M2167.75 699.35H1416.57C1413.11 699.35 1410.31 702.153 1410.31 705.61V780.41C1410.31 783.867 1413.11 786.67 1416.57 786.67H2167.75C2171.21 786.67 2174.01 783.867 2174.01 780.41V705.61C2174.01 702.153 2171.21 699.35 2167.75 699.35Z" fill="white"/>
<path d="M1000.74 1000.18H1311.21C1314.91 1000.18 1317.91 1003.18 1317.91 1006.88V1274.82C1317.91 1278.52 1314.91 1281.52 1311.21 1281.52H1000.74C997.041 1281.52 994.041 1278.52 994.041 1274.82V1006.88C994.041 1003.18 997.041 1000.18 1000.74 1000.18Z" fill="white"/>
<path d="M2388.02 1000.18H1408.32C1406.71 1000.18 1405.4 1001.49 1405.4 1003.1V1084.58C1405.4 1086.19 1406.71 1087.5 1408.32 1087.5H2388.02C2389.63 1087.5 2390.94 1086.19 2390.94 1084.58V1003.1C2390.94 1001.49 2389.63 1000.18 2388.02 1000.18Z" fill="white"/>
<path d="M2162.84 1128.99H1411.66C1408.2 1128.99 1405.4 1131.79 1405.4 1135.25V1210.05C1405.4 1213.51 1408.2 1216.31 1411.66 1216.31H2162.84C2166.3 1216.31 2169.1 1213.51 2169.1 1210.05V1135.25C2169.1 1131.79 2166.3 1128.99 2162.84 1128.99Z" fill="white"/>
<path d="M1311.21 1395.61H1000.74C997.041 1395.61 994.041 1398.61 994.041 1402.31V1670.25C994.041 1673.95 997.041 1676.95 1000.74 1676.95H1311.21C1314.91 1676.95 1317.91 1673.95 1317.91 1670.25V1402.31C1317.91 1398.61 1314.91 1395.61 1311.21 1395.61Z" fill="white"/>
<path d="M2388.02 1395.61H1408.32C1406.71 1395.61 1405.4 1396.92 1405.4 1398.53V1480.01C1405.4 1481.62 1406.71 1482.93 1408.32 1482.93H2388.02C2389.63 1482.93 2390.94 1481.62 2390.94 1480.01V1398.53C2390.94 1396.92 2389.63 1395.61 2388.02 1395.61Z" fill="white"/>
<path d="M2162.84 1524.42H1411.66C1408.2 1524.42 1405.4 1527.22 1405.4 1530.68V1605.48C1405.4 1608.94 1408.2 1611.74 1411.66 1611.74H2162.84C2166.3 1611.74 2169.1 1608.94 2169.1 1605.48V1530.68C2169.1 1527.22 2166.3 1524.42 2162.84 1524.42Z" fill="white"/>
<path d="M1000.74 1793.16H1311.21C1314.91 1793.16 1317.91 1796.16 1317.91 1799.86V2067.8C1317.91 2071.5 1314.91 2074.5 1311.21 2074.5H1000.74C997.041 2074.5 994.041 2071.5 994.041 2067.8V1799.86C994.041 1796.16 997.041 1793.16 1000.74 1793.16Z" fill="white"/>
<path d="M2388.02 1793.16H1408.32C1406.71 1793.16 1405.4 1794.47 1405.4 1796.08V1877.56C1405.4 1879.17 1406.71 1880.48 1408.32 1880.48H2388.02C2389.63 1880.48 2390.94 1879.17 2390.94 1877.56V1796.08C2390.94 1794.47 2389.63 1793.16 2388.02 1793.16Z" fill="white"/>
<path d="M2162.84 1921.97H1411.66C1408.2 1921.97 1405.4 1924.77 1405.4 1928.23V2003.03C1405.4 2006.49 1408.2 2009.29 1411.66 2009.29H2162.84C2166.3 2009.29 2169.1 2006.49 2169.1 2003.03V1928.23C2169.1 1924.77 2166.3 1921.97 2162.84 1921.97Z" fill="white"/>
<path d="M1311.21 2188.6H1000.74C997.041 2188.6 994.041 2191.6 994.041 2195.3V2463.24C994.041 2466.94 997.041 2469.94 1000.74 2469.94H1311.21C1314.91 2469.94 1317.91 2466.94 1317.91 2463.24V2195.3C1317.91 2191.6 1314.91 2188.6 1311.21 2188.6Z" fill="white"/>
<path d="M2388.02 2188.6H1408.32C1406.71 2188.6 1405.4 2189.91 1405.4 2191.52V2273C1405.4 2274.61 1406.71 2275.92 1408.32 2275.92H2388.02C2389.63 2275.92 2390.94 2274.61 2390.94 2273V2191.52C2390.94 2189.91 2389.63 2188.6 2388.02 2188.6Z" fill="white"/>
<path d="M2162.84 2317.41H1411.66C1408.2 2317.41 1405.4 2320.21 1405.4 2323.67V2398.47C1405.4 2401.93 1408.2 2404.73 1411.66 2404.73H2162.84C2166.3 2404.73 2169.1 2401.93 2169.1 2398.47V2323.67C2169.1 2320.21 2166.3 2317.41 2162.84 2317.41Z" fill="white"/>
</g>
<path d="M1935.75 1139.93C1935.75 1139.93 1942.58 1437.24 2255.19 1489.38L2311.31 1433.98C2311.31 1433.98 2040.61 1341.94 1970.15 1149.6L1985.2 1047.6L1974.59 980.1L1935.75 1139.94V1139.93Z" fill="url(#paint4_linear_418_2763)"/>
<path d="M1834.11 1091.42C2055.61 1091.42 2235.17 911.859 2235.17 690.36C2235.17 468.86 2055.61 289.3 1834.11 289.3C1612.61 289.3 1433.05 468.86 1433.05 690.36C1433.05 911.859 1612.61 1091.42 1834.11 1091.42Z" fill="white"/>
<path d="M1837.08 1044.65C2034.25 1044.65 2194.09 884.811 2194.09 687.64C2194.09 490.469 2034.25 330.63 1837.08 330.63C1639.91 330.63 1480.07 490.469 1480.07 687.64C1480.07 884.811 1639.91 1044.65 1837.08 1044.65Z" fill="url(#paint5_linear_418_2763)"/>
<path d="M1974.29 929.17C1956.68 927.9 1900.95 917.63 1901.59 839.66L1903.48 610.13C1903.5 607.21 1903.33 605.72 1900.23 605.77L1710.93 609.18C1707.75 609.24 1705.13 610.8 1705.07 613.76L1704.8 626.02C1704.74 628.84 1707.03 631.13 1710.06 631.27C1728.16 632.09 1785.55 637.5 1784.39 673.68C1783 716.83 1780.76 894.54 1780.76 894.54C1780.76 894.54 1779.4 933.54 1712.63 937.54C1709.42 937.73 1707.38 940.3 1707.32 943.36L1706.99 958.89C1706.92 961.99 1708.34 964.45 1711.6 964.3L1973.9 952.86C1977.04 952.72 1981.24 950.08 1981.25 947.04L1981.28 934.33C1981.28 931.54 1977.14 929.38 1974.29 929.18V929.17Z" fill="white"/>
<path d="M1834.92 556.63C1881.5 555.96 1919.28 520.34 1919.59 477.29C1919.9 434.5 1883.02 400.12 1836.95 400.25C1790.57 400.39 1752.08 435.42 1751.26 478.74C1750.43 522.32 1788.02 557.3 1834.92 556.63Z" fill="white"/>
<path d="M2263.64 2148.69C2263.64 2148.69 2420.31 2490.17 2502.52 2631.6C2502.52 2631.6 2518.85 2720.6 2502.52 2748.58L2488.61 2754.76L2553.55 2752.83C2553.55 2752.83 2559.32 2633.12 2554.81 2626.44C2550.3 2619.75 2541.29 2620.19 2541.29 2620.19C2541.29 2620.19 2513.45 2399.6 2432.81 2352.52L2354.66 2083.36L2263.64 2148.69Z" fill="url(#paint6_linear_418_2763)"/>
<path d="M2460.87 2771.53C2460.77 2773.1 2511.58 2772.38 2539.17 2771.88C2549.36 2771.69 2558.05 2764.53 2560.22 2754.57L2581.06 2645.08C2583.04 2634.68 2576.43 2624.57 2566.11 2622.21L2554.48 2619.55C2554.48 2619.55 2537.89 2642.31 2543.11 2663.75C2548.33 2685.18 2552.98 2740.7 2539.78 2747.17C2526.58 2753.64 2488.61 2754.77 2488.61 2754.77C2488.61 2754.77 2461.75 2757.43 2460.88 2771.53H2460.87Z" fill="url(#paint7_linear_418_2763)"/>
<path d="M2118.5 2773.52C2113.36 2776.45 2115.48 2784.29 2121.39 2784.23C2167.57 2783.77 2271.06 2782.3 2280.25 2778.48C2292.12 2773.54 2275.92 2730.88 2258.88 2716.44L2164.75 2747.16L2118.5 2773.51V2773.52Z" fill="url(#paint8_linear_418_2763)"/>
<path d="M2106.4 2126.91C2106.4 2126.91 2190.53 2616.71 2219.17 2712.25L2151.42 2754.77C2151.42 2754.77 2185.37 2749 2210.55 2747.17C2235.73 2745.35 2258.89 2716.45 2258.89 2716.45L2250.77 2703.5C2250.77 2703.5 2225.38 2216.37 2231.56 2161.06L2106.4 2126.91Z" fill="url(#paint9_linear_418_2763)"/>
<path d="M1759.51 1081.49C1759.51 1081.49 1803.07 1358.69 2092.32 1372.99L2081.62 1511.66C2081.62 1511.66 1800.82 1507.37 1734.48 1131.42C1732.75 1121.63 1724.84 1114.03 1716.22 1109.06L1657 1074.9C1634.44 1061.89 1619.61 1038.72 1617.24 1012.78L1615.04 988.67C1614.3 980.6 1621.51 974.07 1629.47 975.6L1634.77 976.62C1651.65 979.86 1667.07 988.33 1678.87 1000.83L1715.72 1039.85C1729.49 1054.42 1750.97 1058.69 1769.26 1050.47L1781.67 1044.89L1759.51 1081.49Z" fill="url(#paint10_linear_418_2763)"/>
<path d="M2047.88 1350.35C2086.69 1361.11 2218.16 1395.7 2300.24 1394.28L2249.85 1678.66L2253.86 1725.04L2089.55 1724.3C2089.55 1724.3 2043.3 1616.88 2006.8 1563.33C1996.26 1547.86 2004.1 1529.41 2010.08 1511.68L2001.87 1506.22C1993.52 1500.66 1989.9 1490.21 1993.01 1480.68L2033.02 1358.26C2035.1 1352.09 2041.6 1348.61 2047.87 1350.35H2047.88Z" fill="url(#paint11_linear_418_2763)"/>
<path d="M2076.39 1700.04L2079.62 1728.14C2079.62 1728.14 2055.43 1933.03 2125.07 2257.81C2125.07 2257.81 2270.8 2283.95 2394.78 2181.69C2394.78 2181.69 2342.68 1825.91 2333.13 1811.63C2285.55 1740.51 2253.86 1725.05 2253.86 1725.05L2252.43 1694.35C2252.43 1694.35 2119.83 1718.32 2076.39 1700.04Z" fill="url(#paint12_linear_418_2763)"/>
<path d="M2183.2 1278.47L2175.43 1369.84C2174.36 1382.41 2184.27 1393.19 2196.88 1393.19H2266.13L2243.08 1218.07L2183.19 1278.46L2183.2 1278.47Z" fill="url(#paint13_linear_418_2763)"/>
<path d="M2197.99 1105.64C2195.06 1108.25 2100.48 1168.07 2140.75 1270.06C2143.13 1276.09 2148.22 1280.66 2154.5 1282.25C2170.61 1286.32 2204.79 1292.15 2242.61 1281.55C2295.05 1266.85 2313.84 1167.62 2307.65 1140.77C2301.45 1113.92 2226.99 1079.74 2197.98 1105.65L2197.99 1105.64Z" fill="url(#paint14_linear_418_2763)"/>
<path d="M2325.47 1183.51C2336.97 1256.85 2345.47 1253.89 2372.46 1286.52C2416.2 1339.4 2478.78 1284.89 2539.62 1335C2583.54 1371.18 2604.7 1463.73 2583.62 1538.46C2554.43 1641.96 2435.18 1694.71 2383.48 1663.19C2334.07 1633.06 2349.42 1583.1 2282.94 1548.23C2254.72 1533.43 2227.85 1502.71 2210.95 1480.77C2181.36 1442.36 2192.57 1389.38 2195.65 1360.66C2202.32 1298.35 2223.47 1267.44 2215.8 1240.05C2200.88 1186.79 2147.08 1185.73 2141.28 1148.13C2136 1113.89 2186.45 1048.98 2233.92 1059.21C2307.37 1075.03 2320.36 1150.84 2325.48 1183.52L2325.47 1183.51Z" fill="url(#paint15_linear_418_2763)"/>
<path opacity="0.6" d="M2556.11 1513.79C2557.12 1513.96 2558.15 1513.42 2558.59 1512.4C2577.55 1467.6 2579.19 1428.45 2563.46 1396.06C2537.35 1342.3 2471.39 1326.06 2470.73 1325.91C2469.71 1325.55 2468.29 1326.4 2467.99 1327.66C2467.7 1328.91 2468.44 1330.17 2469.66 1330.45C2470.3 1330.6 2534.26 1346.38 2559.41 1398.21C2574.51 1429.31 2572.83 1467.12 2554.43 1510.58C2553.93 1511.76 2554.45 1513.14 2555.6 1513.64C2555.77 1513.71 2555.94 1513.76 2556.11 1513.79Z" fill="white"/>
<path opacity="0.72" d="M2158.79 1152.97C2159.78 1154.18 2160.85 1155.42 2162.02 1156.72C2173.53 1169.42 2190.21 1180.43 2206.36 1191.09C2231.88 1207.92 2255.95 1223.81 2253.4 1243.11C2253.34 1243.56 2252.79 1243.66 2252.17 1243.33C2252.04 1243.26 2251.92 1243.18 2251.82 1243.1C2251.39 1242.76 2251.11 1242.29 2251.15 1241.93C2253.52 1223.99 2231.38 1209.38 2205.77 1192.49C2189.38 1181.67 2172.45 1170.5 2160.55 1157.37C2159.46 1156.16 2158.45 1155 2157.51 1153.86C2157.94 1153.57 2158.37 1153.27 2158.79 1152.97Z" fill="white"/>
</g>
<defs>
<linearGradient id="paint0_linear_418_2763" x1="3000.65" y1="2827.7" x2="925.79" y2="1012.2" gradientUnits="userSpaceOnUse">
<stop stop-color="#DAE3FE"/>
<stop offset="1" stop-color="#E9EFFD"/>
</linearGradient>
<linearGradient id="paint1_linear_418_2763" x1="4581.32" y1="397.61" x2="726.83" y2="1673.48" gradientUnits="userSpaceOnUse">
<stop stop-color="#09005D"/>
<stop offset="1" stop-color="#1A0F91"/>
</linearGradient>
<linearGradient id="paint2_linear_418_2763" x1="906.32" y1="1958.4" x2="3681.85" y2="-464.51" gradientUnits="userSpaceOnUse">
<stop stop-color="#FF6863"/>
<stop offset="1" stop-color="#FE7062"/>
</linearGradient>
<linearGradient id="paint3_linear_418_2763" x1="784.58" y1="1400.8" x2="2598.61" y2="1400.8" gradientUnits="userSpaceOnUse">
<stop stop-color="#4F52FF"/>
<stop offset="1" stop-color="#4042E2"/>
</linearGradient>
<linearGradient id="paint4_linear_418_2763" x1="2113.69" y1="935.05" x2="2130.64" y2="1541.07" gradientUnits="userSpaceOnUse">
<stop stop-color="#A22B25"/>
<stop offset="1" stop-color="#C0423C"/>
</linearGradient>
<linearGradient id="paint5_linear_418_2763" x1="2646.96" y1="-392.2" x2="2304.49" y2="64.4299" gradientUnits="userSpaceOnUse">
<stop stop-color="white"/>
<stop offset="0.0001" stop-color="white"/>
<stop offset="1" stop-color="#FF4634"/>
</linearGradient>
<linearGradient id="paint6_linear_418_2763" x1="2263.65" y1="2419.06" x2="2556.53" y2="2419.06" gradientUnits="userSpaceOnUse">
<stop stop-color="#A22B25"/>
<stop offset="1" stop-color="#C0423C"/>
</linearGradient>
<linearGradient id="paint7_linear_418_2763" x1="2666.22" y1="1764.09" x2="2521.17" y2="2706.87" gradientUnits="userSpaceOnUse">
<stop stop-color="#09005D"/>
<stop offset="1" stop-color="#1A0F91"/>
</linearGradient>
<linearGradient id="paint8_linear_418_2763" x1="2362.68" y1="1716.88" x2="2217.63" y2="2659.66" gradientUnits="userSpaceOnUse">
<stop stop-color="#09005D"/>
<stop offset="1" stop-color="#1A0F91"/>
</linearGradient>
<linearGradient id="paint9_linear_418_2763" x1="2106.4" y1="2440.84" x2="2258.89" y2="2440.84" gradientUnits="userSpaceOnUse">
<stop stop-color="#A22B25"/>
<stop offset="1" stop-color="#C0423C"/>
</linearGradient>
<linearGradient id="paint10_linear_418_2763" x1="1712.47" y1="1292.82" x2="2025.93" y2="1183.3" gradientUnits="userSpaceOnUse">
<stop stop-color="#A22B25"/>
<stop offset="1" stop-color="#C0423C"/>
</linearGradient>
<linearGradient id="paint11_linear_418_2763" x1="3374.8" y1="612.06" x2="2938.32" y2="941.1" gradientUnits="userSpaceOnUse">
<stop stop-color="#FF928E"/>
<stop offset="1" stop-color="#FE7062"/>
</linearGradient>
<linearGradient id="paint12_linear_418_2763" x1="1428.28" y1="3368.28" x2="2123.37" y2="2139.29" gradientUnits="userSpaceOnUse">
<stop stop-color="#4F52FF"/>
<stop offset="1" stop-color="#4042E2"/>
</linearGradient>
<linearGradient id="paint13_linear_418_2763" x1="2227.62" y1="1388.52" x2="2194.04" y2="1219.53" gradientUnits="userSpaceOnUse">
<stop stop-color="#A22B25"/>
<stop offset="1" stop-color="#C0423C"/>
</linearGradient>
<linearGradient id="paint14_linear_418_2763" x1="2305.47" y1="1182.57" x2="3058.58" y2="1103.82" gradientUnits="userSpaceOnUse">
<stop stop-color="#A22B25"/>
<stop offset="1" stop-color="#C0423C"/>
</linearGradient>
<linearGradient id="paint15_linear_418_2763" x1="2591.84" y1="1365.2" x2="2140.89" y2="1365.2" gradientUnits="userSpaceOnUse">
<stop stop-color="#09005D"/>
<stop offset="1" stop-color="#1A0F91"/>
</linearGradient>
<clipPath id="clip0_418_2763">
<rect width="2771.97" height="2789.95" fill="white"/>
</clipPath>
</defs>
</svg>
