<svg width="640" height="401" viewBox="0 0 640 401" fill="none" xmlns="http://www.w3.org/2000/svg">
<g opacity="0.4">
<path d="M40.1337 395.382C41.5943 396.171 43.0812 396.843 44.6208 397.408C51.3318 399.909 58.6876 400.527 66.0039 400.672C68.1619 400.724 70.3199 400.724 72.4517 400.724C230.476 400.553 388.499 400.382 546.51 400.211C546.694 338.404 546.892 276.598 547.076 214.804C547.115 198.487 546.734 180.815 536.72 167.932C527.101 155.55 510.929 150.628 498.125 141.602C463.36 117.087 452.438 71.2547 416.699 47.4767C387.394 27.9886 349.707 22.304 314.823 28.5281C302.651 30.6861 290.822 34.3048 279.808 39.292C253.227 51.3191 234.95 74.597 219.698 98.5591C203.355 124.232 203.237 152.405 197.552 181.473C195.657 191.21 192.815 200.948 187.341 209.225C172.998 230.91 136.864 235.739 113.954 244.595C68.6751 262.083 21.0008 296.257 18.7243 349.51C17.9743 367.288 24.4616 386.96 40.1337 395.382Z" fill="#CFEFFE"/>
</g>
<path d="M158.089 340.537C151.693 336.076 145.075 331.352 141.403 324.483C137.995 318.114 133.798 311.271 131.995 304.271C130.192 297.27 126.863 290.731 122.639 284.862C109.401 266.466 101.822 272.374 99.3873 275.256C96.9924 278.085 96.9792 282.033 99.1241 287.48C100.848 291.849 112.599 310.732 104.743 310.587C95.6371 310.429 86.7417 289.257 82.4914 282.756C76.1357 273.032 66.9641 263.689 55.7659 259.886C50.2392 258.018 43.2782 257.913 39.5017 262.36C37.2383 265.018 36.6594 268.755 36.9488 272.229C37.8042 282.704 45.0941 290.809 52.3709 297.731C55.4106 300.626 74.7146 311.706 63.9638 314.495C61.3979 315.166 34.5277 308.192 39.6464 325.312C41.4492 331.339 50.4103 334.431 63.7796 337.339C72.1223 339.168 100.848 340.905 102.414 347.761C103.98 354.616 86.5575 350.169 93.2421 361.288C96.9792 367.525 107.73 368.499 114.704 368.433C118.02 368.394 121.323 367.709 124.639 367.894C128.573 368.104 134.219 370.315 133.429 375.21C133.087 377.342 131.363 379.092 131.087 381.237C130.81 383.421 132.14 385.566 133.942 386.816C135.758 388.066 137.969 388.566 140.153 388.869C154.115 390.829 168.392 385.908 179.985 377.881C191.565 369.841 200.789 358.88 209.25 347.603" fill="#B0EEFF"/>
<g opacity="0.25">
<path d="M50.5672 270.664C50.5672 270.664 93.9649 333.905 154.627 358.683" stroke="white" stroke-width="1.73696" stroke-linecap="round" stroke-linejoin="round"/>
<path d="M51.2914 324.509C51.2914 324.509 82.6488 332.576 103.045 326.825" stroke="white" stroke-width="1.73696" stroke-linecap="round" stroke-linejoin="round"/>
<path d="M106.676 282.322C112.637 292.639 126.796 322.522 122.888 341.616" stroke="white" stroke-width="1.73696" stroke-linecap="round" stroke-linejoin="round"/>
<path d="M102.887 359.788C102.887 359.788 115.546 363.736 145.39 354.564" stroke="white" stroke-width="1.73696" stroke-linecap="round" stroke-linejoin="round"/>
<path d="M137.521 380.698C137.521 380.698 153.338 376.882 163.049 363.512" stroke="white" stroke-width="1.73696" stroke-linecap="round" stroke-linejoin="round"/>
</g>
<path d="M275.61 277.506C274.544 271.111 273.504 264.439 275.452 258.268C277.255 252.544 278.873 246.069 281.979 240.938C285.084 235.792 287.032 230.016 288.071 224.107C291.295 205.567 283.387 204.488 280.268 204.711C277.189 204.935 274.846 207.225 272.859 211.659C271.267 215.225 266.885 233.174 262.398 228.424C257.201 222.923 264.609 205.343 265.991 199.04C268.07 189.618 268.293 178.749 264.043 169.88C261.951 165.511 257.964 161.314 253.121 161.656C250.226 161.853 247.674 163.682 245.779 165.88C240.055 172.485 239.476 181.512 239.594 189.855C239.647 193.342 244.279 211.251 236.383 206.488C234.502 205.356 223.027 185.342 215.829 198.329C213.303 202.909 216.671 210.014 222.711 219.66C226.475 225.673 242.134 243.74 238.976 248.662C235.818 253.583 228.33 240.648 225.606 251.07C224.08 256.912 229.751 263.873 233.844 267.966C235.791 269.913 238.12 271.466 239.936 273.545C242.094 276.006 244.068 280.638 240.699 283.019C239.226 284.059 237.199 284.046 235.765 285.138C234.304 286.243 233.804 288.283 234.107 290.072C234.423 291.875 235.41 293.481 236.502 294.954C243.45 304.389 254.674 310.008 266.175 312.219C277.676 314.429 289.545 313.535 301.164 312.008" fill="#B0EEFF"/>
<g opacity="0.25">
<path d="M254.622 173.051C254.622 173.051 242.293 235.569 262.82 285.993" stroke="white" stroke-width="1.43431" stroke-linecap="round" stroke-linejoin="round"/>
<path d="M223.067 204.764C223.067 204.764 236.502 228.082 251.767 236.845" stroke="white" stroke-width="1.43431" stroke-linecap="round" stroke-linejoin="round"/>
<path d="M280.309 213.146C277.637 222.686 268.124 248.451 254.517 257.241" stroke="white" stroke-width="1.43431" stroke-linecap="round" stroke-linejoin="round"/>
<path d="M232.095 255.912C232.095 255.912 237.108 265.715 259.899 278.111" stroke="white" stroke-width="1.43431" stroke-linecap="round" stroke-linejoin="round"/>
<path d="M239.806 288.625C239.806 288.625 251.254 295.797 264.847 293.796" stroke="white" stroke-width="1.43431" stroke-linecap="round" stroke-linejoin="round"/>
</g>
<path d="M253.964 307.798C251.398 295.797 207.711 214.594 160.615 234.622C132.64 246.517 137.679 290.336 181.367 323.43C172.787 316.601 162.892 308.85 151.194 306.942C144.877 305.903 137.14 308.311 132.403 311.903C128.192 315.101 126.955 320.167 126.758 324.891C126.047 342.063 136.916 359.248 154.404 368.604C144.746 364.157 136.364 358.59 125.337 357.814C121.757 357.564 115.678 359.248 114.02 361.88C112.217 364.736 112.336 375.46 133.613 383.474C46.897 369.933 41.844 400.37 73.0172 400.37H279.005" fill="#D7F6FF"/>
<path d="M436.528 263.373C438.436 257.189 440.357 250.715 439.252 244.333C438.226 238.424 437.489 231.792 435.094 226.292C432.699 220.778 431.541 214.804 431.304 208.804C430.58 189.987 438.555 189.987 441.634 190.632C444.647 191.263 446.674 193.842 448.042 198.5C449.147 202.251 451.095 220.62 456.174 216.515C462.056 211.765 457.069 193.342 456.529 186.921C455.727 177.315 456.964 166.498 462.359 158.287C465.017 154.234 469.53 150.616 474.281 151.589C477.123 152.182 479.413 154.326 480.992 156.761C485.781 164.064 485.15 173.104 483.926 181.341C483.413 184.789 476.426 201.909 484.887 198.25C486.913 197.369 500.954 179.078 506.335 192.908C508.23 197.777 503.941 204.382 496.677 213.12C492.137 218.581 474.215 234.398 476.689 239.687C479.163 244.977 488.308 233.161 489.611 243.859C490.348 249.859 483.794 255.991 479.202 259.505C477.018 261.176 474.491 262.413 472.412 264.215C469.951 266.36 467.372 270.703 470.399 273.506C471.715 274.729 473.728 274.993 475.004 276.256C476.307 277.545 476.531 279.624 475.991 281.374C475.439 283.111 474.241 284.572 472.978 285.888C464.833 294.31 452.963 298.389 441.265 299.034C429.567 299.692 417.922 297.218 406.618 294.152" fill="#B0EEFF"/>
<g opacity="0.25">
<path d="M471.253 162.656C471.253 162.656 475.135 226.265 448.068 273.492" stroke="white" stroke-width="1.43431" stroke-linecap="round" stroke-linejoin="round"/>
<path d="M498.308 198.29C498.308 198.29 481.885 219.594 465.582 226.252" stroke="white" stroke-width="1.43431" stroke-linecap="round" stroke-linejoin="round"/>
<path d="M440.462 198.961C441.831 208.764 447.818 235.582 460.135 246.096" stroke="white" stroke-width="1.43431" stroke-linecap="round" stroke-linejoin="round"/>
<path d="M482.53 247.78C482.53 247.78 476.254 256.833 452.015 266.07" stroke="white" stroke-width="1.43431" stroke-linecap="round" stroke-linejoin="round"/>
<path d="M470.516 279.177C470.516 279.177 458.212 284.756 445.014 280.966" stroke="white" stroke-width="1.43431" stroke-linecap="round" stroke-linejoin="round"/>
</g>
<path d="M441.568 307.495C444.134 295.494 487.821 214.291 534.917 234.319C562.892 246.214 557.853 290.033 514.165 323.127C522.745 316.298 532.64 308.548 544.338 306.64C550.655 305.6 558.392 308.008 563.129 311.6C567.34 314.798 568.577 319.864 568.774 324.588C569.485 341.76 558.616 358.946 541.128 368.302C550.786 363.854 559.168 358.288 570.196 357.511C573.775 357.261 579.854 358.946 581.512 361.577C583.315 364.433 583.196 375.157 561.919 383.171C648.635 369.631 653.688 400.067 622.515 400.067H416.554" fill="#D7F6FF"/>
<path d="M417.895 338.589C423.645 335.615 429.619 332.47 433.409 327.207C436.922 322.338 441.133 317.166 443.396 311.613C445.66 306.047 449.121 301.034 453.239 296.665C466.174 282.98 471.754 288.678 473.451 291.323C475.109 293.915 474.688 297.178 472.306 301.415C470.398 304.824 458.634 319.061 465.122 319.825C472.635 320.706 482.307 304.258 486.518 299.376C492.821 292.073 501.414 285.388 511.059 283.506C515.809 282.572 521.56 283.256 524.178 287.335C525.744 289.77 525.81 292.915 525.192 295.744C523.323 304.271 516.428 310.14 509.677 315.035C506.861 317.074 489.729 324.062 498.269 327.549C500.308 328.378 523.205 325.614 517.099 339.142C514.941 343.905 507.23 345.458 495.887 346.379C488.807 346.958 464.977 345.221 462.911 350.682C460.858 356.143 475.701 354.419 468.964 362.841C465.187 367.565 456.226 367.17 450.502 366.341C447.778 365.946 445.133 365.012 442.383 364.788C439.12 364.538 434.225 365.722 434.343 369.841C434.396 371.644 435.606 373.262 435.606 375.065C435.606 376.894 434.264 378.513 432.633 379.342C431.001 380.171 429.119 380.329 427.29 380.342C415.579 380.408 404.354 374.776 395.709 366.88C387.064 358.985 380.682 348.932 374.958 338.707" fill="#B0EEFF"/>
<g opacity="0.25">
<path d="M514.165 292.955C514.165 292.955 471.425 340.221 418.738 353.919" stroke="white" stroke-width="1.43431" stroke-linecap="round" stroke-linejoin="round"/>
<path d="M507.625 337.208C507.625 337.208 480.913 340.379 464.754 333.378" stroke="white" stroke-width="1.43431" stroke-linecap="round" stroke-linejoin="round"/>
<path d="M466.675 296.35C460.635 304.192 445.66 327.233 446.766 343.379" stroke="white" stroke-width="1.43431" stroke-linecap="round" stroke-linejoin="round"/>
<path d="M461.227 360.551C461.227 360.551 450.371 362.394 426.803 351.538" stroke="white" stroke-width="1.43431" stroke-linecap="round" stroke-linejoin="round"/>
<path d="M430.396 373.934C430.396 373.934 417.804 369.039 411.277 356.959" stroke="white" stroke-width="1.43431" stroke-linecap="round" stroke-linejoin="round"/>
</g>
<path opacity="0.4" d="M188.577 170.814C188.577 170.814 189.011 217.186 143.153 223.173C129.639 224.581 128.547 207.554 140.337 200.435C152.127 193.303 165.22 193.527 172.168 173.275C178.261 155.498 190.301 150.432 188.577 170.828V170.814Z" fill="#CFEFFE"/>
<g opacity="0.56">
<path d="M201.538 34.3577L199.209 34.8182H199.156C198.669 34.9235 198.196 34.6077 198.09 34.1208C197.998 33.6339 198.314 33.1602 198.788 33.0549L201.222 32.5549C201.709 32.4496 202.196 32.7654 202.301 33.2655C202.406 33.7523 202.091 34.2392 201.59 34.3445H201.538V34.3577Z" fill="#B0EEFF"/>
<path d="M195.788 35.7655C194.274 36.2524 192.787 36.805 191.327 37.4366C190.879 37.6209 190.366 37.4235 190.182 36.9761C189.998 36.5287 190.195 36.0287 190.642 35.8313C192.143 35.1733 193.682 34.5944 195.235 34.0812C195.709 33.9233 196.209 34.1864 196.353 34.647C196.511 35.1207 196.248 35.6207 195.788 35.7655Z" fill="#B0EEFF"/>
<path d="M188.09 38.9366C186.668 39.6472 185.287 40.4235 183.931 41.2657C183.537 41.5157 183.01 41.3841 182.773 40.9894C182.537 40.5946 182.655 40.0682 183.05 39.8314C184.445 38.9629 185.866 38.1602 187.326 37.4102C187.747 37.1865 188.274 37.3575 188.484 37.7786C188.708 38.1997 188.537 38.726 188.116 38.9366H188.09Z" fill="#B0EEFF"/>
<path d="M180.945 43.2268C179.642 44.1479 178.379 45.1085 177.168 46.1349C176.826 46.4244 176.313 46.3849 176.01 46.0428C175.721 45.7006 175.76 45.1875 176.102 44.898C177.352 43.8321 178.642 42.8189 179.971 41.8714C180.34 41.6083 180.866 41.6872 181.129 42.0688C181.392 42.4504 181.313 42.9636 180.932 43.2268H180.945Z" fill="#B0EEFF"/>
<path d="M174.523 48.5428C173.391 49.6482 172.325 50.8193 171.325 52.0562C171.049 52.3984 170.549 52.451 170.22 52.1747C169.878 51.8983 169.825 51.4114 170.102 51.0693C171.128 49.7798 172.233 48.5691 173.404 47.4112C173.72 47.0954 174.233 47.0954 174.549 47.4112C174.865 47.727 174.865 48.2402 174.549 48.556L174.523 48.5428Z" fill="#B0EEFF"/>
<path d="M169.233 54.9117C168.364 56.2276 167.601 57.6093 166.956 59.0436C166.785 59.4252 166.338 59.5962 165.956 59.4252C165.575 59.2541 165.404 58.8067 165.575 58.4251C166.246 56.9119 167.048 55.4512 167.943 54.0695C168.18 53.7143 168.654 53.609 169.022 53.8459C169.378 54.0827 169.483 54.5564 169.246 54.9249L169.233 54.9117Z" fill="#B0EEFF"/>
<path d="M165.746 62.346C165.325 63.8461 165.049 65.3989 164.97 66.9516C164.944 67.3595 164.602 67.6622 164.207 67.649C163.799 67.6227 163.496 67.2806 163.51 66.8858C163.588 65.2146 163.865 63.5566 164.299 61.9513C164.404 61.5565 164.825 61.3196 165.22 61.4249C165.615 61.5302 165.852 61.9513 165.746 62.346Z" fill="#B0EEFF"/>
<path d="M165.114 70.4388C165.312 71.9784 165.706 73.4917 166.259 74.9523C166.404 75.3207 166.22 75.7287 165.851 75.8603C165.496 76.005 165.088 75.8208 164.943 75.4523C164.338 73.8996 163.904 72.2811 163.68 70.6231C163.627 70.2283 163.904 69.8598 164.298 69.8072C164.693 69.7546 165.062 70.0309 165.114 70.4257V70.4388Z" fill="#B0EEFF"/>
<path d="M167.774 78.1365C168.55 79.505 169.458 80.7946 170.458 82.0184C170.695 82.3079 170.655 82.7289 170.366 82.9658C170.076 83.2027 169.655 83.1632 169.418 82.8737C168.366 81.6104 167.405 80.2551 166.576 78.8208C166.379 78.4918 166.497 78.0707 166.826 77.8734C167.155 77.676 167.576 77.7944 167.774 78.1234V78.1365Z" fill="#B0EEFF"/>
<path d="M172.865 84.6372C173.997 85.7426 175.207 86.769 176.484 87.7032C176.773 87.9138 176.839 88.3217 176.629 88.6112C176.418 88.9007 176.023 88.9665 175.734 88.7559C174.405 87.7953 173.128 86.7426 171.944 85.5978C171.681 85.3478 171.668 84.9267 171.931 84.6636C172.181 84.4004 172.602 84.3872 172.865 84.6504V84.6372Z" fill="#B0EEFF"/>
<path d="M179.458 89.6376C180.826 90.4271 182.261 91.1114 183.734 91.6903C184.05 91.8088 184.208 92.1772 184.077 92.493C183.958 92.8088 183.603 92.9667 183.287 92.8352C181.747 92.243 180.26 91.5456 178.826 90.7297C178.524 90.5587 178.418 90.1771 178.589 89.8613C178.76 89.5586 179.142 89.4534 179.458 89.6244V89.6376Z" fill="#B0EEFF"/>
<path d="M187.116 92.8221C188.643 93.23 190.209 93.5327 191.774 93.7169C192.09 93.7564 192.327 94.0459 192.288 94.3617C192.248 94.6775 191.959 94.9143 191.643 94.8749C190.011 94.7038 188.393 94.4012 186.8 93.9932C186.485 93.9143 186.287 93.5853 186.366 93.2563C186.445 92.9405 186.774 92.7431 187.103 92.8221H187.116Z" fill="#B0EEFF"/>
<path d="M195.34 93.9008C196.919 93.9008 198.511 93.7692 200.051 93.4929C200.353 93.4402 200.643 93.6376 200.696 93.9403C200.748 94.2429 200.551 94.5324 200.248 94.585C198.63 94.8877 196.985 95.0324 195.34 95.0456C195.024 95.0456 194.761 94.7956 194.761 94.4798C194.761 94.164 195.011 93.9008 195.327 93.9008H195.34Z" fill="#B0EEFF"/>
<path d="M203.446 92.5586C204.906 91.9927 206.275 91.2164 207.407 90.19C207.617 89.9926 207.959 90.0057 208.157 90.2163C208.354 90.4268 208.341 90.7558 208.13 90.9532C206.893 92.1112 205.407 92.9533 203.854 93.5586C203.577 93.6639 203.262 93.5323 203.143 93.256C203.038 92.9796 203.17 92.6638 203.446 92.5454V92.5586Z" fill="#B0EEFF"/>
<path d="M209.486 87.4534C210.183 86.0849 210.552 84.5585 210.657 83.0058C210.67 82.7294 210.907 82.5189 211.183 82.5452C211.46 82.5584 211.657 82.7952 211.644 83.0715C211.539 84.7296 211.157 86.4007 210.394 87.9271C210.262 88.1772 209.96 88.2824 209.71 88.1508C209.46 88.0193 209.354 87.7166 209.486 87.4534Z" fill="#B0EEFF"/>
<path d="M210.446 79.5448C210.104 78.0447 209.367 76.6631 208.341 75.5051C208.17 75.3077 208.183 75.0182 208.38 74.8472C208.578 74.6761 208.867 74.6893 209.038 74.8866C210.17 76.1367 210.999 77.6763 211.381 79.3212C211.446 79.5843 211.288 79.8475 211.025 79.9133C210.762 79.9791 210.499 79.8212 210.433 79.558L210.446 79.5448Z" fill="#B0EEFF"/>
<path d="M205.657 73.2681C204.328 72.4391 202.854 71.8338 201.341 71.3864C201.104 71.3206 200.973 71.0706 201.038 70.8469C201.104 70.61 201.354 70.4785 201.578 70.5442C203.157 71.0048 204.696 71.6233 206.118 72.4917C206.328 72.6233 206.407 72.8997 206.276 73.1234C206.144 73.3339 205.868 73.4129 205.644 73.2813L205.657 73.2681Z" fill="#B0EEFF"/>
<path d="M197.866 70.6493C196.287 70.4256 194.695 70.3467 193.103 70.373C192.879 70.373 192.695 70.2019 192.682 69.9651C192.682 69.7414 192.853 69.5571 193.076 69.544C194.708 69.5045 196.353 69.5835 197.971 69.794C198.208 69.8203 198.366 70.044 198.34 70.2677C198.314 70.5046 198.09 70.6625 197.866 70.6362V70.6493Z" fill="#B0EEFF"/>
<path d="M189.525 70.6103C187.946 70.7945 186.367 71.084 184.814 71.4788C184.603 71.5314 184.406 71.3998 184.353 71.2024C184.301 71.005 184.432 70.7945 184.63 70.7419C186.209 70.3339 187.814 70.0313 189.433 69.8207C189.656 69.7944 189.854 69.9523 189.88 70.1629C189.906 70.3866 189.748 70.5839 189.538 70.6103H189.525Z" fill="#B0EEFF"/>
<path d="M181.366 72.4919C179.852 73.0183 178.379 73.6367 176.944 74.3341C176.773 74.4263 176.563 74.3473 176.471 74.1762C176.392 74.0052 176.457 73.7946 176.628 73.7025C178.089 72.9788 179.589 72.334 181.116 71.7945C181.313 71.7287 181.523 71.8208 181.589 72.0182C181.655 72.2156 181.563 72.4261 181.366 72.4919Z" fill="#B0EEFF"/>
<path d="M173.8 76.084C172.445 76.9261 171.129 77.8472 169.892 78.8605C169.747 78.9789 169.55 78.9526 169.431 78.8078C169.313 78.6762 169.339 78.4657 169.471 78.3604C170.721 77.3209 172.05 76.3734 173.431 75.505C173.589 75.3997 173.8 75.4523 173.905 75.6102C174.01 75.7681 173.958 75.9787 173.8 76.084Z" fill="#B0EEFF"/>
<path d="M167.22 81.2687C166.088 82.4003 165.035 83.6109 164.088 84.8873C163.996 85.0189 163.812 85.0452 163.68 84.9531C163.548 84.861 163.522 84.6768 163.614 84.5452C164.575 83.2293 165.641 81.9924 166.786 80.8344C166.904 80.716 167.101 80.716 167.22 80.8344C167.338 80.9529 167.338 81.1502 167.22 81.2687Z" fill="#B0EEFF"/>
<path d="M162.089 87.8879C161.273 89.2696 160.562 90.7039 159.944 92.1777C159.891 92.3093 159.733 92.3751 159.602 92.3224C159.47 92.2698 159.404 92.1119 159.457 91.9803C160.076 90.4802 160.786 89.0064 161.602 87.5984C161.681 87.4668 161.852 87.4142 161.984 87.4931C162.115 87.5721 162.168 87.7432 162.089 87.8748V87.8879Z" fill="#B0EEFF"/>
<path d="M158.732 95.5726C158.271 97.1122 157.916 98.6781 157.653 100.257C157.627 100.389 157.508 100.468 157.377 100.455C157.245 100.428 157.166 100.31 157.179 100.191C157.429 98.586 157.785 96.9938 158.245 95.441C158.285 95.3094 158.429 95.2305 158.561 95.27C158.693 95.3094 158.771 95.4542 158.732 95.5858V95.5726Z" fill="#B0EEFF"/>
<path d="M157.232 103.836C157.14 105.441 157.035 107.047 157.167 108.639C157.167 108.757 157.088 108.85 156.982 108.863C156.864 108.863 156.772 108.784 156.759 108.665C156.614 107.047 156.706 105.415 156.785 103.797C156.785 103.678 156.89 103.573 157.022 103.586C157.14 103.586 157.245 103.691 157.232 103.823V103.836Z" fill="#B0EEFF"/>
<path d="M157.654 112.205C157.996 113.771 158.483 115.297 159.141 116.758C159.18 116.85 159.141 116.955 159.049 116.995C158.957 117.034 158.852 116.995 158.812 116.902C158.141 115.415 157.628 113.876 157.272 112.284C157.246 112.178 157.312 112.073 157.417 112.047C157.522 112.021 157.628 112.086 157.654 112.192V112.205Z" fill="#B0EEFF"/>
<path d="M160.85 119.942C161.706 121.298 162.706 122.561 163.785 123.745C163.837 123.798 163.837 123.89 163.785 123.956C163.732 124.008 163.64 124.008 163.587 123.956C162.482 122.771 161.469 121.495 160.587 120.127C160.535 120.048 160.561 119.956 160.64 119.903C160.719 119.85 160.811 119.877 160.863 119.956L160.85 119.942Z" fill="#B0EEFF"/>
<path d="M166.377 126.245C167.588 127.298 168.877 128.259 170.219 129.154C170.272 129.193 170.285 129.259 170.246 129.311C170.206 129.364 170.14 129.377 170.088 129.338C168.732 128.456 167.43 127.496 166.193 126.443C166.14 126.39 166.127 126.311 166.18 126.259C166.232 126.206 166.311 126.193 166.364 126.245H166.377Z" fill="#B0EEFF"/>
<path d="M173.326 131.035C174.734 131.825 176.181 132.535 177.655 133.193C177.694 133.206 177.721 133.259 177.694 133.298C177.681 133.338 177.629 133.364 177.589 133.338C176.115 132.693 174.655 131.983 173.234 131.206C173.181 131.18 173.168 131.114 173.194 131.075C173.22 131.022 173.286 131.009 173.326 131.035Z" fill="#B0EEFF"/>
<path d="M180.997 134.575C182.498 135.154 184.024 135.667 185.577 136.141C185.603 136.141 185.616 136.18 185.616 136.206C185.616 136.233 185.577 136.246 185.55 136.246C184.011 135.785 182.471 135.272 180.958 134.706C180.919 134.693 180.905 134.654 180.919 134.614C180.932 134.575 180.971 134.562 181.011 134.575H180.997Z" fill="#B0EEFF"/>
<path d="M189.064 137.141L193.775 138.233C193.775 138.233 193.801 138.246 193.788 138.259C193.788 138.259 193.775 138.286 193.762 138.273L189.038 137.22C189.038 137.22 188.998 137.194 189.012 137.167C189.012 137.141 189.038 137.128 189.064 137.141Z" fill="#B0EEFF"/>
<path d="M197.354 138.878L199.762 139.207L197.354 138.904V138.891V138.878Z" fill="#B0EEFF"/>
<path d="M223.487 8.07956C223.671 7.88218 208.354 10.9087 208.354 10.9087L203.722 33.0681L215.71 19.6988L232.922 22.6727L263.897 9.75073L223.5 8.09272L223.487 8.07956Z" fill="#81D7EA"/>
<path d="M263.885 9.7373L203.71 33.0678L215.697 19.6985L263.885 9.7373Z" fill="#B0EEFF"/>
<path d="M263.885 9.7375L199.525 0L208.341 10.9086L263.885 9.7375L215.697 19.6987L230.475 38.8184L263.885 9.7375Z" fill="#B0EEFF"/>
</g>
<path d="M108.218 400.25H0.999999" stroke="#B0EEFF" stroke-width="1.31588" stroke-linecap="round" stroke-linejoin="round"/>
<path d="M191.697 400.25H128.114" stroke="#B0EEFF" stroke-width="1.31588" stroke-linecap="round" stroke-linejoin="round"/>
<path d="M481.796 400.25H189.158" stroke="#B0EEFF" stroke-width="1.31588" stroke-linecap="round" stroke-linejoin="round"/>
<path d="M546.734 400.25H499.205" stroke="#B0EEFF" stroke-width="1.31588" stroke-linecap="round" stroke-linejoin="round"/>
<path d="M349.391 50.2008H351.746V47.8454C351.746 47.4638 352.049 47.1611 352.43 47.1611C352.812 47.1611 353.115 47.4638 353.115 47.8454V50.2008H355.47C355.852 50.2008 356.154 50.5035 356.154 50.8851C356.154 51.2667 355.852 51.5693 355.47 51.5693H353.115V53.9247C353.115 54.3064 352.812 54.609 352.43 54.609C352.049 54.609 351.746 54.3064 351.746 53.9247V51.5693H349.391C349.009 51.5693 348.706 51.2667 348.706 50.8851C348.706 50.5035 349.009 50.2008 349.391 50.2008Z" fill="#9DDBF4"/>
<path d="M150.613 268.11H152.969V265.755C152.969 265.373 153.271 265.071 153.653 265.071C154.035 265.071 154.337 265.373 154.337 265.755V268.11H156.693C157.074 268.11 157.377 268.413 157.377 268.795C157.377 269.176 157.074 269.479 156.693 269.479H154.337V271.834C154.337 272.216 154.035 272.519 153.653 272.519C153.271 272.519 152.969 272.216 152.969 271.834V269.479H150.613C150.232 269.479 149.929 269.176 149.929 268.795C149.929 268.413 150.232 268.11 150.613 268.11Z" fill="#9DDBF4"/>
<path d="M67.9629 385.684H70.3184V383.329C70.3184 382.947 70.621 382.645 71.0026 382.645C71.3842 382.645 71.6868 382.947 71.6868 383.329V385.684H74.0423C74.4239 385.684 74.7266 385.987 74.7266 386.368C74.7266 386.75 74.4239 387.053 74.0423 387.053H71.6868V389.408C71.6868 389.79 71.3842 390.092 71.0026 390.092C70.621 390.092 70.3184 389.79 70.3184 389.408V387.053H67.9629C67.5813 387.053 67.2787 386.75 67.2787 386.368C67.2787 385.987 67.5813 385.684 67.9629 385.684Z" fill="#9DDBF4"/>
<path d="M529.902 123.351H532.258V120.995C532.258 120.614 532.56 120.311 532.942 120.311C533.324 120.311 533.626 120.614 533.626 120.995V123.351H535.982C536.363 123.351 536.666 123.653 536.666 124.035C536.666 124.417 536.363 124.719 535.982 124.719H533.626V127.075C533.626 127.456 533.324 127.759 532.942 127.759C532.56 127.759 532.258 127.456 532.258 127.075V124.719H529.902C529.521 124.719 529.218 124.417 529.218 124.035C529.218 123.653 529.521 123.351 529.902 123.351Z" fill="#9DDBF4"/>
<path d="M151.258 157.879H153.613V155.524C153.613 155.142 153.916 154.839 154.298 154.839C154.679 154.839 154.982 155.142 154.982 155.524V157.879H157.337C157.719 157.879 158.021 158.182 158.021 158.563C158.021 158.945 157.719 159.248 157.337 159.248H154.982V161.603C154.982 161.985 154.679 162.287 154.298 162.287C153.916 162.287 153.613 161.985 153.613 161.603V159.248H151.258C150.876 159.248 150.574 158.945 150.574 158.563C150.574 158.182 150.876 157.879 151.258 157.879Z" fill="#9DDBF4"/>
<path d="M262.766 117.916C262.766 119.258 263.858 120.35 265.2 120.35C266.543 120.35 267.635 119.258 267.635 117.916C267.635 116.574 266.543 115.481 265.2 115.481C263.858 115.481 262.766 116.574 262.766 117.916Z" stroke="#9DDBF4" stroke-width="1.31588" stroke-miterlimit="10"/>
<path d="M30.2894 324.575C30.2894 325.917 31.3816 327.009 32.7238 327.009C34.066 327.009 35.1582 325.917 35.1582 324.575C35.1582 323.232 34.066 322.14 32.7238 322.14C31.3816 322.14 30.2894 323.232 30.2894 324.575Z" stroke="#9DDBF4" stroke-width="1.31588" stroke-miterlimit="10"/>
<path d="M439.093 139.667C439.093 141.009 440.185 142.102 441.528 142.102C442.87 142.102 443.962 141.009 443.962 139.667C443.962 138.325 442.87 137.233 441.528 137.233C440.185 137.233 439.093 138.325 439.093 139.667Z" stroke="#9DDBF4" stroke-width="1.31588" stroke-miterlimit="10"/>
<path d="M521.415 372.644C521.415 373.986 522.508 375.078 523.85 375.078C525.192 375.078 526.284 373.986 526.284 372.644C526.284 371.302 525.192 370.209 523.85 370.209C522.508 370.209 521.415 371.302 521.415 372.644Z" stroke="#9DDBF4" stroke-width="1.31588" stroke-miterlimit="10"/>
<path d="M271.675 344.747C271.689 345.313 271.702 345.892 271.715 346.444C271.939 357.577 272.544 365.867 272.833 368.972C272.833 369.012 272.847 369.064 272.847 369.091C272.939 370.051 273.097 371.038 273.333 372.025C274.452 376.854 277.176 381.947 281.15 386.421C285.663 391.5 291.795 395.816 299.059 398.119C299.335 398.211 299.638 398.29 299.967 398.369C301.493 398.75 303.559 399.079 306.033 399.316H306.059C307.849 399.514 309.862 399.658 312.047 399.777C313.533 399.856 315.086 399.935 316.705 399.987C317.415 400.014 318.139 400.04 318.889 400.066C318.902 400.066 318.915 400.053 318.929 400.066C322.903 400.185 327.219 400.224 331.719 400.224C343.628 400.224 356.839 399.882 368.392 399.487C368.998 399.461 369.603 399.461 370.195 399.487C377.485 399.724 389.749 399.895 403.553 400.027H403.698C407.316 400.066 411.027 400.106 414.79 400.119H414.856C415.04 400.119 415.211 400.119 415.383 400.132C416.909 400.132 418.462 400.132 420.001 400.158H421.159C427.883 400.198 434.647 400.237 441.082 400.264C453.714 400.303 464.175 391.5 464.965 380.197C465.32 375.065 465.596 370.67 465.754 369.091C466.82 358.077 472.176 276.676 447.029 240.674C436.318 225.357 416.659 219.054 397.605 216.87C396.447 216.738 395.289 216.62 394.144 216.528C388.315 216.001 382.591 215.843 377.262 215.909C375.617 215.909 373.998 215.962 372.432 216.028C371.787 216.041 371.143 216.067 370.511 216.093C369.695 216.12 368.893 216.12 368.09 216.093C366.748 216.027 365.379 215.975 363.958 215.935C355.168 215.725 345.128 216.08 335.193 217.672C328.837 218.686 322.534 220.225 316.613 222.449C315.626 222.817 314.652 223.199 313.691 223.62C304.822 227.384 297.032 232.858 291.558 240.674C279.873 257.399 274.781 283.94 272.781 308.665C272.333 314.113 272.044 319.482 271.86 324.64C271.794 326.417 271.754 328.154 271.715 329.877C271.61 335.167 271.61 340.181 271.675 344.747Z" fill="#1A6CF3"/>
<path d="M301.506 254.544C314.139 232.937 342.956 230.779 361.563 231.91C380.169 230.779 408.987 232.937 421.62 254.544C441.042 287.769 436.91 362.88 436.081 373.038C435.252 383.197 427.396 395.448 415.83 399.83C408.803 402.488 381.235 395.895 361.076 395.04C340.917 395.895 314.323 402.501 307.296 399.83C295.716 395.448 287.874 383.197 287.045 373.038C286.216 362.88 282.084 287.769 301.506 254.544Z" fill="#0E60D8"/>
<g style="mix-blend-mode:screen" opacity="0.3">
<path d="M437.003 237.977C443.359 243.648 448.688 252.53 447.912 260.754C447.728 262.715 446.938 264.926 444.912 265.689C440.293 267.439 438.161 262.36 437.24 259.281C435.845 254.557 433.766 250.017 430.911 245.846C429.161 243.28 424.818 239.029 427.687 235.937C430.226 233.2 433.937 235.24 436.99 237.977H437.003Z" fill="#8589F7"/>
</g>
<g style="mix-blend-mode:screen" opacity="0.3">
<path d="M414.856 224.923C419.04 225.646 423.33 227.791 424.528 231.015C424.817 231.791 424.857 232.778 424.014 233.502C422.106 235.16 420.093 233.739 419.054 232.792C417.475 231.344 415.58 230.107 413.409 229.173C412.066 228.607 409.132 227.962 409.935 226.186C410.645 224.62 412.843 224.567 414.856 224.923Z" fill="#8589F7"/>
</g>
<g style="mix-blend-mode:multiply" opacity="0.2">
<path d="M272.741 325.022C272.425 324.89 272.136 324.759 271.86 324.64C271.241 324.364 270.715 324.087 270.267 323.824C271.083 318.745 271.912 313.679 272.781 308.665C278.084 277.795 284.926 249.201 300.704 235.134C306.415 230.028 327.877 225.265 327.877 225.265L327.811 225.423H327.89C327.89 225.423 327.877 225.318 327.877 225.265C328.127 225.186 328.363 225.081 328.6 224.989C329.39 222.91 331.179 221.317 333.193 220.449C331.232 221.344 329.535 222.923 328.771 224.923C331.824 223.673 334.127 221.449 335.193 217.672C345.128 216.08 355.168 215.725 363.958 215.935C364.247 216.751 364.616 217.541 365.05 218.291C366.866 219.159 368.906 220.712 370.932 223.094C371.274 223.199 371.616 223.291 371.972 223.357C371.972 223.357 372.774 223.436 374.169 223.62C374.117 223.225 374.024 222.817 373.906 222.396C373.827 222.067 373.695 221.646 373.551 221.186C373.09 219.699 372.459 217.725 372.432 216.028C373.998 215.962 375.617 215.922 377.262 215.909C377.959 216.988 378.696 218.33 379.499 219.857C379.946 220.725 380.591 222.37 381.13 224.62C392.67 226.462 411.83 230.515 418.843 237.7C435.515 254.793 440.661 280.69 444.819 330.667V330.706C445.069 332.956 443.516 336.575 436.937 336.009C436.147 335.957 435.279 335.825 434.331 335.628C432.963 341.273 430.963 346.563 428.147 351.023C431.515 370.117 430.699 386.842 415.922 386.947C415.922 386.947 419.528 391.947 420.751 397.369C420.975 398.29 421.107 399.224 421.159 400.158C421.159 400.303 421.159 400.448 421.159 400.593H298.625L299.954 398.369L301.059 396.5L306.901 386.723C306.901 386.723 313.534 372.091 313.968 344.549C313.705 341.247 313.231 338.049 312.547 334.904C309.665 346.971 301.967 374.42 289.848 383.052C288.242 384.21 286.571 385.026 284.808 385.434C283.61 385.881 282.387 386.21 281.137 386.421C277.163 381.947 274.439 376.854 273.32 372.025C273.083 371.038 272.925 370.051 272.833 369.091C272.833 369.064 272.82 369.012 272.82 368.972C272.531 365.867 271.925 357.577 271.702 346.444C271.702 345.892 271.675 345.313 271.662 344.747C271.596 340.181 271.596 335.167 271.702 329.877C272.044 328.285 272.386 326.653 272.728 325.022H272.741Z" fill="black"/>
</g>
<path d="M435.424 330.707C435.701 333.404 433.451 338.023 423.147 335.207C412.844 332.378 421.305 315.469 421.305 315.469L431.029 321.943L435.424 330.707Z" fill="#F48806"/>
<path d="M396.198 302.442C396.198 302.442 405.448 296.283 405.488 297.757C405.751 310.258 438.161 386.724 406.501 386.961C385.96 389.448 297.494 386.737 297.494 386.737C297.494 386.737 304.415 371.473 304.586 342.773C304.652 330.851 326.114 300.205 326.114 300.205" fill="#F5BC04"/>
<path d="M307.061 317.285C307.061 317.285 297.007 369.196 278.045 373.591C253.465 382.855 216.331 339.313 195.75 331.812C191.04 330.101 202.409 309.705 208.291 313.929C220.62 322.785 238.832 327.799 260.123 340.839C260.821 337.207 272.098 284.862 273.111 277.993C274.545 268.229 307.061 317.285 307.061 317.285Z" fill="#FAB0AD"/>
<path d="M295.587 264.992C295.587 264.992 284.099 292.743 298.679 320.798C305.851 338.273 306.653 353.024 301.692 378.96C337.761 379.262 396.212 363.025 396.212 363.025V287.914L357.433 225.265L318.404 225.423L295.6 264.992H295.587Z" fill="#F5BC04"/>
<path d="M318.47 225.265C318.47 225.265 297.008 230.029 291.297 235.134C272.953 251.504 266.69 287.467 260.86 323.838C268.585 328.364 302.929 336.049 314.561 334.023C326.194 331.983 311.903 241.753 311.903 241.753L318.47 225.278V225.265Z" fill="#F5BC04"/>
<path d="M295.586 263.083C290.165 275.44 289.481 289.585 292.178 302.731C295.021 315.942 303.192 327.312 304.416 340.891C304.403 337.536 303.824 334.194 303.021 330.93C300.521 321.232 295.468 312.232 293.468 302.455C290.665 289.48 291.218 275.663 295.586 263.083Z" fill="#F48806"/>
<path d="M406.502 386.947C406.502 386.947 411.66 394.093 411.752 400.593H289.217L297.494 386.724L406.502 386.947Z" fill="#182149"/>
<path d="M259.728 340.562C263.794 344.971 269.163 348.089 271.373 353.8C271.966 347.708 264.86 342.431 259.728 340.562Z" fill="#F39C9C"/>
<path d="M215.778 321.127C200.553 308.231 206.409 306.073 192.237 299.296C185.092 295.901 187.066 302.402 191.75 307.113C196.422 311.824 195.014 312.363 189.711 311.297C184.408 310.231 181.407 306.586 173.802 301.573C172.657 300.823 169.657 301.283 170.657 302.56C169.13 301.941 166.933 304.192 168.565 306.429C167.183 305.968 166.262 308.205 167.893 311.008C165.972 310.81 166.867 315.219 171.078 319.758C176.104 325.311 179.026 329.93 197.79 332.075C200.659 333.325 208.488 331.009 209.554 331.68C223.687 343.589 219.173 323.995 215.791 321.127H215.778Z" fill="#FAB0AD"/>
<path d="M197.606 312.192C194.159 315.811 194.909 321.719 196.527 326.035C196.172 321.496 195.343 316.364 197.606 312.192Z" fill="#F39C9C"/>
<path d="M170.538 302.442C174.196 306.745 178.447 311.061 183.815 313.101C179.052 309.956 175.104 305.876 170.538 302.442Z" fill="#F39C9C"/>
<path d="M168.564 306.416C171.986 310.574 176.223 314.679 181.513 316.206C176.749 313.534 172.907 309.718 168.564 306.416Z" fill="#F39C9C"/>
<path d="M167.894 310.995C170.868 315.245 175.302 319.022 180.526 319.943C175.737 317.798 171.842 314.416 167.894 310.995Z" fill="#F39C9C"/>
<path d="M424.95 280.756C424.95 280.756 439.911 364.104 393.842 364.275C385.842 364.617 377.078 356.314 369.288 343.721L375.96 334.115L394.408 311.561L424.95 280.769V280.756Z" fill="#FAB0AD"/>
<path d="M338.458 245.017C338.458 245.017 344.169 255.557 351.498 268.676C351.853 269.295 352.195 269.9 352.551 270.532C364.223 291.349 379.408 317.495 382.632 318.653C388.211 317.298 394.33 316.851 400.449 317.206C400.501 317.206 400.567 317.219 400.62 317.219C400.909 317.232 401.186 317.259 401.475 317.285C401.554 317.285 401.62 317.298 401.699 317.298C410.41 317.969 419.055 320.285 426.029 323.969C426.056 323.983 426.095 323.996 426.122 324.009C426.385 324.154 426.635 324.285 426.885 324.43C426.911 324.443 426.951 324.47 426.977 324.483C430.253 326.299 433.122 328.443 435.425 330.852C431.267 280.756 426.122 254.82 409.436 237.7C402.423 230.516 383.263 226.463 371.723 224.621C371.381 224.555 371.065 224.502 370.736 224.463C368.762 224.147 367.052 223.91 365.723 223.739C365.381 223.686 365.065 223.647 364.775 223.621C363.38 223.436 362.578 223.357 362.578 223.357L362.17 223.726L362.117 223.765L361.486 224.331L361.446 224.371L347.235 237.135L346.511 237.793L338.471 245.017H338.458Z" fill="#F5BC04"/>
<path d="M435.425 330.851C421.016 315.403 397.172 315.061 377.802 319.074L378.579 319.68C378.276 311.192 378.303 302.692 378.513 294.191C378.776 285.704 379.197 277.19 380.776 268.821C377.763 281.256 377.368 294.191 377.171 306.929C377.145 311.442 377.171 315.969 377.302 320.482L378.066 320.324C397.277 316.35 420.45 316.377 435.425 330.838V330.851Z" fill="#F48806"/>
<path d="M353.314 202.356C353.314 202.356 350.708 220.949 362.564 223.357C357.59 233.99 347.419 245.372 332.97 243.346C318.522 241.306 318.693 230.792 318.469 225.265C324.246 223.318 327.707 218.383 325.996 207.067C339.668 206.619 353.327 202.356 353.327 202.356H353.314Z" fill="#E89797"/>
<path d="M287.598 177.591C288.835 187.513 296.664 194.711 305.086 193.658C313.508 192.605 319.337 183.71 318.1 173.788C316.863 163.867 309.034 156.669 300.612 157.721C292.19 158.774 286.361 167.669 287.598 177.591Z" fill="#D3291C"/>
<path d="M289.823 177.302C291.06 187.223 298.889 194.421 307.311 193.368C315.732 192.316 321.562 183.42 320.325 173.499C319.088 163.577 311.258 156.379 302.837 157.432C294.415 158.485 288.586 167.38 289.823 177.302Z" fill="#EF412E"/>
<path d="M303.903 179.368C297.758 169.078 294.731 156.485 297.771 144.892C304.14 120.601 331.286 108.021 354.696 114.456C358.249 115.429 361.683 116.837 364.894 118.627C366.196 119.351 367.46 120.127 368.683 120.956C377.197 126.706 381.25 138.47 382.395 148.26C383.895 161.077 379.908 180.552 367.052 186.855" fill="#182149"/>
<path d="M301.929 177.038C301.929 177.038 301.455 218.541 340.892 212.633C361.565 208.461 370.631 191.539 368.631 178.104C373.75 176.63 378.553 161.077 378.553 161.077L368.039 146.431C368.039 146.431 361.933 136.114 359.999 136.338C358.078 136.562 338.497 138.838 338.497 138.838L301.929 177.038Z" fill="#FAB0AD"/>
<path d="M302.074 179.263C302.074 179.263 335.444 174.328 345.892 147.603C352.669 158.419 354.867 163.367 362.301 165.183C365.789 158.261 379.368 166.209 368.723 176.512C386 173.144 378.342 145.05 378.342 145.05L368.407 126.338L338.852 122.601C338.852 122.601 319.325 120.232 314.351 129.996C309.39 139.76 302.324 147.616 300.653 154.419C299.166 160.459 302.061 179.276 302.061 179.276L302.074 179.263Z" fill="#182149"/>
<path d="M331.787 180.157C331.432 182.052 328.879 182.973 329.353 185.118C329.682 186.565 331.155 187.25 332.445 187.5C332.629 187.539 332.695 187.276 332.537 187.197C330.853 186.539 330.234 185.026 330.669 182.644C330.984 182.289 331.261 181.907 331.511 181.499C331.853 180.802 331.787 180.933 331.879 180.183C331.879 180.118 331.787 180.091 331.774 180.17L331.787 180.157Z" fill="#D57775"/>
<path d="M318.509 170.038C315.641 168.169 309.509 168.275 308.627 172.38C308.574 172.643 308.943 172.67 309.048 172.472C310.917 168.88 315.075 169.104 318.417 170.209C318.522 170.249 318.614 170.091 318.509 170.025V170.038Z" fill="#0B2042"/>
<path d="M339.563 167.959C343.866 164.024 349.84 165.445 354.327 168.143C354.512 168.261 354.748 167.972 354.604 167.814C350.959 163.827 342.958 163.787 339.313 167.682C339.168 167.84 339.405 168.117 339.576 167.959H339.563Z" fill="#0B2042"/>
<path d="M348.524 185.894C348.063 184.763 348.208 183.407 349.327 181.934C351.235 179.394 354.88 178.157 357.959 178.236C359.327 178.275 360.762 178.854 361.472 180.026C361.906 180.749 362.025 181.618 361.998 182.46C361.88 185.513 359.683 188.447 356.695 189.21C353.932 189.908 349.695 188.776 348.537 185.921L348.524 185.894Z" fill="#F39C9C"/>
<path d="M307.035 188.421C306.653 187.408 306.693 186.237 307.377 185C308.561 182.881 310.996 182 313.127 182.223C314.075 182.329 315.088 182.908 315.641 183.96C315.983 184.605 316.114 185.381 316.128 186.105C316.207 188.763 314.851 191.211 312.825 191.711C310.956 192.171 307.982 190.974 307.035 188.408V188.421Z" fill="#F39C9C"/>
<path d="M313.626 175.999C313.758 178.381 314.587 180.499 317.192 180.67C318.021 180.723 318.837 179.894 318.995 179.131C319.284 177.723 318.469 177.025 318.324 175.723C317.969 172.749 313.468 172.946 313.639 175.986L313.626 175.999Z" fill="#0B2042"/>
<path d="M314.587 176.788C314.627 177.42 314.837 177.973 315.521 178.012C315.745 178.025 315.956 177.815 315.995 177.604C316.074 177.236 315.864 177.052 315.811 176.709C315.719 175.933 314.535 175.986 314.587 176.775V176.788Z" fill="white"/>
<path d="M344.562 172.92C344.483 175.67 345.247 178.196 348.221 178.63C349.181 178.775 350.181 177.894 350.431 177.025C350.892 175.433 350.023 174.564 349.971 173.051C349.839 169.604 344.655 169.406 344.549 172.92H344.562Z" fill="#0B2042"/>
<path d="M345.589 173.92C345.576 174.643 345.773 175.301 346.55 175.42C346.8 175.459 347.063 175.222 347.129 174.999C347.247 174.577 347.023 174.354 347.01 173.959C346.971 173.051 345.615 172.998 345.589 173.92Z" fill="white"/>
<path d="M324.312 195.513C324.246 197.198 326.904 204.567 332.931 204.843C337.984 205.067 345.879 199.092 343.576 193.724C342.287 191.763 324.377 193.829 324.312 195.513Z" fill="#8B4646"/>
<path d="M343.51 197.934C342.563 197.158 341.26 196.868 340.089 196.803C337.312 196.645 334.51 196.974 332.009 198.132C330.207 198.961 328.575 200.263 327.338 201.948C328.707 203.487 330.549 204.737 332.944 204.843C336.668 205.014 341.944 201.79 343.523 197.934H343.51Z" fill="#F16B6B"/>
<path d="M377.856 165.498C378.395 160.156 377.75 154.656 376.25 149.392C375.5 146.747 374.526 144.155 373.25 141.681C372 139.194 370.526 136.786 368.736 134.602C366.96 132.404 364.973 130.364 362.736 128.588C360.499 126.825 358.012 125.364 355.433 124.153C352.854 122.93 350.13 122.035 347.367 121.469C344.603 120.877 341.814 120.469 339.037 120.43C333.497 120.337 327.905 120.732 322.536 122.338C317.194 123.89 312.035 126.417 307.838 130.128C305.732 131.97 303.837 134.036 302.271 136.325C300.719 138.628 299.482 141.115 298.561 143.694C296.718 148.866 296.297 154.392 296.916 159.669C297.113 154.353 298.192 149.103 300.416 144.444C302.614 139.786 305.916 135.746 309.982 132.746C314.035 129.746 318.733 127.667 323.654 126.562C328.576 125.456 333.695 125.061 338.748 125.548C343.787 125.89 348.696 127.062 353.196 129.062C355.446 130.062 357.604 131.272 359.565 132.746C361.552 134.194 363.42 135.838 365.092 137.681C366.75 139.536 368.302 141.523 369.671 143.668C371.013 145.813 372.224 148.076 373.289 150.432C375.382 155.156 376.934 160.195 377.856 165.459V165.498Z" fill="#EF412E"/>
<path d="M377.052 180.354C377.052 180.354 379.46 199.553 352.787 203.54" stroke="#182149" stroke-width="1.82907" stroke-miterlimit="10"/>
<path d="M346.998 205.198C347.327 206.949 350.038 207.909 353.038 207.343C356.052 206.777 358.223 204.896 357.894 203.146C357.565 201.395 354.854 200.435 351.854 201.001C348.841 201.567 346.669 203.448 346.998 205.198Z" fill="#182149"/>
<path d="M359.591 173.459C359.512 183.46 366.342 191.618 374.829 191.684C383.317 191.75 390.265 183.697 390.33 173.696C390.409 163.695 383.58 155.537 375.092 155.471C366.605 155.405 359.657 163.458 359.591 173.459Z" fill="#D3291C"/>
<path d="M361.236 173.446C361.157 183.447 367.986 191.605 376.474 191.671C384.961 191.737 391.909 183.684 391.975 173.683C392.054 163.682 385.224 155.524 376.737 155.458C368.25 155.392 361.302 163.445 361.236 173.446Z" fill="#EF412E"/>
<path d="M366.763 173.485C366.71 179.894 371.079 185.118 376.527 185.157C381.974 185.197 386.409 180.038 386.461 173.63C386.514 167.222 382.145 161.998 376.698 161.958C371.263 161.919 366.815 167.077 366.763 173.485Z" fill="#D3291C"/>
<path d="M342.195 114.942C340.985 109.758 341.932 104.099 344.761 99.599C345.919 97.7699 347.393 96.0988 349.275 95.0066C352.393 93.1907 356.196 93.1775 359.802 93.4012C363.065 93.6117 366.355 94.0197 369.408 95.1777C373.842 96.8751 377.658 100.257 379.579 104.599C381.501 108.942 381.395 114.179 379.053 118.298C376.698 122.416 372.053 125.206 367.315 125.048" fill="#182149"/>
<path d="M358.682 221.607C364.117 224.515 361.854 230.016 360.551 234.687C359.235 239.411 357.774 244.082 356.314 248.767C351.313 265.057 343.444 288.283 338.023 304.679L328.575 332.536L329.851 332.68L324.048 275.519C322.851 264.084 320.338 240.279 319.074 229.095C318.245 225.463 320.39 221.87 323.785 220.436C320.364 221.778 318.074 225.436 318.837 229.121L319.153 232.7C321.324 258.557 326.048 306.534 328.549 332.812L328.838 335.878C334.72 318.206 342.76 294.638 348.274 277.071C352.682 263.031 357.169 249.004 360.88 234.766C362.09 230.095 364.222 224.384 358.682 221.607Z" fill="#0B2042"/>
<path d="M369.947 344.734C363.947 332.786 359.341 320.153 356.446 307.1C352.156 287.796 352.814 279.664 351.643 263.439C351.643 263.439 367.881 245.451 371.447 260.031C377.658 285.375 400.423 308.376 403.739 325.575C408.2 348.734 369.921 345.602 369.921 345.602" fill="#FAB0AD"/>
<path d="M351.341 231.213C349.946 228.884 348.182 226.502 345.959 224.673C342.893 221.712 347.84 218.528 353.407 223.844C352.341 222.37 350.617 221.265 350.143 220.16C347.906 216.896 357.354 214.922 364.999 229.029C365.684 226.568 365.447 224.252 364.934 222.265C364.434 220.383 362.565 215.844 363.999 213.857C365.394 211.935 368.302 217.436 369.671 220.054C370.934 222.476 373.776 231.502 371.276 242.609C368.776 253.715 374.276 268.9 374.276 268.9L365.407 269.86L356.815 271.545C356.815 271.545 352.038 270.545 352.012 269.637C351.841 268.071 351.551 262.926 350.209 260.768C345.722 253.53 344.564 249.556 346.709 243.28C348.854 237.003 344.143 232.976 341.84 230.068C339.8 227.489 346.314 224.949 351.314 231.2L351.341 231.213Z" fill="#FAB0AD"/>
<path d="M351.497 268.676C351.497 268.755 351.51 268.834 351.51 268.899C351.55 269.202 351.563 269.465 351.589 269.676C351.668 271.202 351.747 272.689 351.826 274.15C352.339 284.427 352.76 292.559 356.011 307.205C358.734 319.495 363.064 331.72 368.867 343.536L368.761 343.694L368.906 343.944C369.051 344.168 369.196 344.391 369.327 344.602L369.498 344.852L369.459 346.036L369.893 346.063C369.893 346.063 370.038 346.076 370.288 346.089C375.907 354.682 384.394 364.722 393.368 364.722C393.539 364.722 393.697 364.722 393.868 364.722C403.106 364.695 410.593 361.314 416.133 354.668C422.502 347.023 425.581 335.825 426.884 324.443C426.634 324.298 426.384 324.166 426.121 324.022C426.094 324.008 426.055 323.995 426.028 323.982C424.778 335.325 421.752 346.51 415.436 354.089C410.08 360.511 402.816 363.787 393.855 363.827C386.973 364.143 378.828 357.577 370.919 345.418L370.788 345.234H370.564C370.564 345.234 370.446 345.207 370.393 345.207V344.668L370.367 344.563L370.09 344.128C370.012 343.997 369.919 343.865 369.84 343.734L369.906 343.628L369.788 343.391C363.958 331.562 359.616 319.324 356.892 307.02C353.655 292.454 353.247 284.361 352.734 274.11C352.668 272.966 352.602 271.781 352.55 270.557C352.195 269.913 351.852 269.307 351.497 268.689V268.676Z" fill="#F39C9C"/>
<path d="M341.523 230.358C341.852 230.779 342.233 231.226 342.628 231.687C344.102 233.397 345.786 235.358 346.497 237.792C346.957 239.358 346.997 241.121 346.313 243.148C344.023 249.833 345.562 254.07 349.865 261.018C350.918 262.728 351.313 266.623 351.497 268.676C351.852 269.294 352.194 269.9 352.55 270.531C352.523 270.216 352.51 269.913 352.497 269.597C352.471 269.373 352.444 269.123 352.418 268.821C352.221 266.61 351.839 262.504 350.629 260.544C345.931 252.938 345.181 249.267 347.168 243.437C347.984 241.029 347.852 238.95 347.22 237.134C346.405 234.687 344.72 232.726 343.325 231.108C342.931 230.647 342.549 230.213 342.233 229.792C341.694 229.121 342.01 228.634 342.378 228.344C343.641 227.344 347.589 227.226 350.997 231.502L351.734 230.989C350.089 228.213 348.247 225.963 346.26 224.318C345.431 223.515 345.247 222.633 345.812 222.054C346.786 221.028 349.786 221.002 353.102 224.173L353.787 223.581C353.274 222.883 352.629 222.252 352.05 221.712C351.405 221.081 350.8 220.502 350.576 219.988C350.352 219.646 350.181 219.265 350.352 218.923C350.563 218.528 351.208 218.265 352.05 218.265H352.089C354.418 218.265 357.945 219.949 361.432 224.37C362.511 225.726 363.577 227.344 364.616 229.252L365.156 230.239L365.445 229.16C365.932 227.423 366.024 225.634 365.709 223.739C365.63 223.212 365.524 222.686 365.38 222.16C365.287 221.818 365.156 221.396 365.011 220.91C364.38 218.923 363.327 215.58 364.38 214.133C364.537 213.909 364.669 213.909 364.722 213.922C366.011 214.014 368.472 218.725 369.288 220.265C369.669 221.015 370.235 222.462 370.722 224.462C371.748 228.607 372.512 235.108 370.827 242.516C368.459 253.017 373.222 267.242 373.762 268.821C377.775 279.216 383.802 288.888 389.631 298.244C392.052 302.139 394.342 305.823 396.382 309.389L400.606 317.219L401.461 318.811L402.264 318.377L401.685 317.298L397.171 308.942C395.118 305.35 392.829 301.665 390.394 297.77C384.591 288.454 378.591 278.808 374.617 268.518C374.078 266.965 369.406 252.978 371.722 242.714C373.38 235.305 372.722 228.884 371.709 224.62C371.169 222.37 370.525 220.725 370.077 219.857C367.972 215.83 366.261 213.12 364.774 213.014C364.458 212.988 364.011 213.08 363.629 213.593C362.314 215.422 363.406 218.896 364.13 221.186C364.274 221.646 364.406 222.068 364.485 222.397C364.603 222.818 364.695 223.226 364.748 223.62C365.024 225.081 365.037 226.449 364.814 227.778C363.919 226.252 363.011 224.923 362.09 223.765C358.392 219.12 354.589 217.357 352.063 217.357H352.023C350.813 217.37 349.905 217.778 349.536 218.502C349.234 219.08 349.326 219.752 349.773 220.423C349.865 220.646 350.023 220.87 350.208 221.12C347.892 220.133 346.01 220.528 345.141 221.423C344.431 222.16 344.141 223.541 345.641 225.002C346.734 225.897 347.773 226.976 348.76 228.239C345.957 226.436 343.168 226.542 341.799 227.634C340.891 228.357 340.773 229.423 341.51 230.358H341.523Z" fill="#F39C9C"/>
<path d="M349.103 221.199C355.037 224.213 358.301 230.66 361.024 236.463C360.84 235.648 360.63 234.832 360.38 234.029C358.498 228.752 354.84 222.712 349.103 221.186V221.199Z" fill="#F39C9C"/>
<path d="M346.142 227.542C350.497 229.252 352.813 233.779 354.182 237.99C354.616 239.45 354.945 240.95 355.05 242.503C355.313 240.963 355.195 239.358 354.866 237.819C353.879 233.397 350.997 228.305 346.142 227.542Z" fill="#F39C9C"/>
<path d="M404.054 331.404C405.488 324.904 403.094 317.824 398.791 312.863C402.001 318.522 404.212 324.825 404.054 331.404Z" fill="#F39C9C"/>
<g style="mix-blend-mode:multiply" opacity="0.1">
<path d="M233.607 298.717H364.024C368.581 298.717 372.274 302.411 372.274 306.968V386.671C372.274 391.227 368.581 394.921 364.024 394.921H233.607C229.05 394.921 225.357 391.227 225.357 386.671V306.968C225.357 302.411 229.05 298.717 233.607 298.717Z" fill="black"/>
<path d="M227.83 394.935H369.814C370.729 394.935 371.472 395.677 371.472 396.593V398.79C371.472 399.706 370.729 400.448 369.814 400.448H227.83C226.915 400.448 226.172 399.706 226.172 398.79V396.593C226.172 395.677 226.915 394.935 227.83 394.935Z" fill="black"/>
<g style="mix-blend-mode:multiply">
<path d="M282.808 343.865C284.005 344.457 285.36 344.773 286.795 344.773C291.887 344.773 296.032 340.628 296.032 335.523C296.032 334.18 295.743 332.917 295.23 331.772C289.124 333.115 284.308 337.839 282.808 343.865Z" fill="black"/>
</g>
<g style="mix-blend-mode:multiply">
<path d="M288.361 347.668C288.361 353.445 293.046 358.116 298.809 358.116C304.573 358.116 309.271 353.431 309.271 347.668C309.271 347.563 309.271 347.444 309.271 347.339C309.099 341.72 304.494 337.22 298.822 337.22C298.046 337.22 297.283 337.299 296.546 337.47C296.875 338.193 297.059 338.996 297.059 339.851C297.059 343.089 294.427 345.72 291.203 345.72C290.296 345.72 289.44 345.51 288.677 345.141C288.493 345.852 288.388 346.589 288.374 347.352C288.374 347.457 288.374 347.576 288.374 347.681L288.361 347.668Z" fill="black"/>
</g>
<path d="M288.362 347.01C288.362 347.115 288.362 347.234 288.362 347.339C288.533 352.971 293.138 357.471 298.81 357.471C304.481 357.471 309.087 352.971 309.258 347.339C309.258 347.234 309.258 347.115 309.258 347.01C309.258 341.233 304.573 336.562 298.797 336.562C297.902 336.562 297.046 336.68 296.217 336.878C296.336 337.062 296.428 337.259 296.52 337.47C296.849 338.194 297.033 338.996 297.033 339.852C297.033 343.089 294.402 345.721 291.178 345.721C290.27 345.721 289.414 345.51 288.651 345.142C288.599 345.115 288.559 345.102 288.52 345.076C288.401 345.707 288.335 346.352 288.335 347.01H288.362Z" fill="black"/>
</g>
<path d="M226.554 298.717H356.971C361.528 298.717 365.222 302.411 365.222 306.968V386.671C365.222 391.227 361.528 394.921 356.971 394.921H226.554C221.998 394.921 218.304 391.227 218.304 386.671V306.968C218.304 302.411 221.998 298.717 226.554 298.717Z" fill="#EF412E"/>
<path d="M220.765 394.935H362.748C363.664 394.935 364.406 395.677 364.406 396.593V398.79C364.406 399.706 363.664 400.448 362.748 400.448H220.765C219.849 400.448 219.107 399.706 219.107 398.79V396.593C219.107 395.677 219.849 394.935 220.765 394.935Z" fill="#EF412E"/>
<g style="mix-blend-mode:multiply">
<path d="M275.742 343.865C276.94 344.457 278.295 344.773 279.729 344.773C284.822 344.773 288.967 340.628 288.967 335.523C288.967 334.18 288.677 332.917 288.164 331.772C282.058 333.115 277.242 337.839 275.742 343.865Z" fill="white"/>
</g>
<g style="mix-blend-mode:multiply">
<path d="M281.308 347.668C281.308 353.445 285.993 358.116 291.757 358.116C297.52 358.116 302.218 353.431 302.218 347.668C302.218 347.563 302.218 347.444 302.218 347.339C302.047 341.72 297.441 337.22 291.77 337.22C290.993 337.22 290.23 337.299 289.493 337.47C289.822 338.193 290.006 338.996 290.006 339.851C290.006 343.089 287.375 345.72 284.151 345.72C283.243 345.72 282.387 345.51 281.624 345.141C281.44 345.852 281.335 346.589 281.322 347.352C281.322 347.457 281.322 347.576 281.322 347.681L281.308 347.668Z" fill="#A2A9AD"/>
</g>
<path d="M281.309 347.01C281.309 347.115 281.309 347.234 281.309 347.339C281.48 352.971 286.086 357.471 291.757 357.471C297.428 357.471 302.034 352.971 302.205 347.339C302.205 347.234 302.205 347.115 302.205 347.01C302.205 341.233 297.521 336.562 291.744 336.562C290.849 336.562 289.994 336.68 289.165 336.878C289.283 337.062 289.375 337.259 289.467 337.47C289.796 338.194 289.981 338.996 289.981 339.852C289.981 343.089 287.349 345.721 284.125 345.721C283.217 345.721 282.362 345.51 281.598 345.142C281.546 345.115 281.506 345.102 281.467 345.076C281.348 345.707 281.283 346.352 281.283 347.01H281.309Z" fill="white"/>
<g style="mix-blend-mode:multiply">
<path d="M357.051 394.934C314.601 394.066 267.4 394.092 224.923 394.934C267.413 395.777 314.587 395.803 357.051 394.934Z" fill="#A2A9AD"/>
</g>
<path d="M234.884 288.388C237.99 277.15 239.779 265.57 240.2 253.912C237.095 265.149 235.318 276.742 234.884 288.388Z" fill="#1A6CF3"/>
<path d="M217.291 270.676C217.989 268.004 217.265 265.123 215.357 263.123C214.647 265.794 215.397 268.662 217.291 270.676Z" fill="#1A6CF3"/>
<path d="M222.396 291.809C222.304 285.98 220.844 280.203 218.107 275.058C218.186 280.887 219.673 286.664 222.396 291.809Z" fill="#1A6CF3"/>
<path d="M211.344 294.691C202.527 284.94 192.711 276.11 182.079 268.386C190.895 278.137 200.725 286.966 211.344 294.691Z" fill="#1A6CF3"/>
<path d="M164.579 213.485L225.377 196.315C227.671 195.667 230.055 197.002 230.703 199.296L242.094 239.629C242.741 241.923 241.407 244.308 239.113 244.956L178.316 262.125C176.022 262.773 173.637 261.438 172.989 259.145L161.599 218.811C160.951 216.517 162.285 214.132 164.579 213.485Z" fill="#1A6CF3"/>
<path d="M227.858 197.513C219.686 210.975 211.581 225.344 203.975 239.121L205.185 238.779C191.671 231.121 176.868 222.896 163.077 215.804C176.197 224.054 190.842 232.595 204.317 240.306L205.093 240.753L205.528 239.963C213.081 226.173 220.871 211.606 227.871 197.513H227.858Z" fill="#2FA1ED"/>
<path d="M241.148 241.503C232.635 234.476 223.45 228.436 213.607 223.423C222.108 230.463 231.306 236.49 241.148 241.503Z" fill="#2FA1ED"/>
<path d="M174.63 260.281C180.407 250.833 185.104 240.858 188.684 230.384C182.894 239.832 178.222 249.806 174.63 260.281Z" fill="#2FA1ED"/>
<path d="M489.48 106.48L403.224 106.48C400.724 106.48 398.697 104.454 398.697 101.954V64.2408C398.697 61.7408 400.724 59.7141 403.224 59.7141L489.48 59.7141C491.98 59.7141 494.006 61.7408 494.006 64.2408V101.954C494.006 104.454 491.98 106.48 489.48 106.48Z" fill="#F5BC04"/>
<g opacity="0.66">
<path d="M482.992 92.585H463.201" stroke="#EF412E" stroke-width="1.31588" stroke-linecap="round" stroke-linejoin="round"/>
<path d="M423.659 85.5317H410.264" stroke="#EF412E" stroke-width="1.31588" stroke-linecap="round" stroke-linejoin="round"/>
<path d="M482.992 85.5317H429.462" stroke="#EF412E" stroke-width="1.31588" stroke-linecap="round" stroke-linejoin="round"/>
<path d="M482.992 78.4785H410.264" stroke="#EF412E" stroke-width="1.31588" stroke-linecap="round" stroke-linejoin="round"/>
<path d="M432.686 71.4253H410.263" stroke="#EF412E" stroke-width="1.31588" stroke-linecap="round" stroke-linejoin="round"/>
<path d="M482.992 71.4253H438.265" stroke="#EF412E" stroke-width="1.31588" stroke-linecap="round" stroke-linejoin="round"/>
<path d="M457.411 92.585H410.263" stroke="#EF412E" stroke-width="1.31588" stroke-linecap="round" stroke-linejoin="round"/>
</g>
<path d="M414.594 106.467L405.922 117.034V106.467H414.594Z" fill="#F5BC04"/>
</svg>
